<svg xmlns="http://www.w3.org/2000/svg" viewBox="0 0 409 391" fill="currentColor"><g opacity="0.1"><path d="M102.036 390.488L101.395 388.884C107.812 386.638 111.983 386.958 115.512 387.279C119.363 387.6 122.892 387.921 128.988 385.675C135.085 383.429 137.652 380.862 140.539 378.295C143.106 375.728 145.994 372.841 152.411 370.595C158.828 368.348 163 368.669 166.529 368.99C170.379 369.311 173.909 369.632 180.005 367.386C186.102 365.14 188.668 362.573 191.556 360.006C194.123 357.439 197.011 354.552 203.428 352.306C209.845 350.059 214.016 350.38 217.546 350.701C221.396 351.022 224.926 351.343 231.022 349.097C237.118 346.851 239.685 344.284 242.573 341.717C245.14 339.15 248.027 336.263 254.445 334.016C260.862 331.77 265.033 332.091 268.563 332.412C272.413 332.733 275.942 333.054 282.039 330.808C288.135 328.562 290.702 325.995 293.59 323.428C296.157 320.861 299.044 317.973 305.461 315.727C311.879 313.481 316.05 313.802 319.579 314.123C323.43 314.444 326.959 314.765 333.055 312.519C339.152 310.273 341.719 307.706 344.606 305.139C347.173 302.572 350.061 299.684 356.478 297.438C362.895 295.192 367.067 295.513 370.596 295.834C374.446 296.155 377.976 296.476 384.072 294.23C390.168 291.984 392.735 289.417 395.623 286.85C398.19 284.283 401.078 281.395 407.495 279.149L408.137 280.754C402.04 283 399.473 285.567 396.586 288.134C394.019 290.7 391.131 293.588 384.714 295.834C378.297 298.08 374.126 297.759 370.596 297.438C366.746 297.118 363.216 296.797 357.12 299.043C351.024 301.289 348.457 303.856 345.569 306.423C343.002 308.989 340.114 311.877 333.697 314.123C327.28 316.369 323.109 316.048 319.579 315.727C315.729 315.407 312.2 315.086 306.103 317.332C300.007 319.578 297.44 322.145 294.552 324.712C291.985 327.278 289.098 330.166 282.68 332.412C276.263 334.658 272.092 334.337 268.563 334.016C264.712 333.696 261.183 333.375 255.086 335.621C248.99 337.867 246.423 340.434 243.535 343.001C240.969 345.567 238.081 348.455 231.664 350.701C225.246 352.947 221.075 352.626 217.546 352.306C213.695 351.985 210.166 351.664 204.07 353.91C197.973 356.156 195.406 358.723 192.519 361.29C189.952 363.856 187.064 366.744 180.647 368.99C174.23 371.236 170.059 370.915 166.529 370.595C162.679 370.274 159.149 369.953 153.053 372.199C146.957 374.445 144.39 377.012 141.502 379.579C138.935 382.145 136.047 385.033 129.63 387.279C123.213 389.525 119.042 389.204 115.512 388.884C111.662 388.563 108.133 388.242 102.036 390.488Z" fill="currentColor"/><path d="M97.2237 377.652L96.582 376.048C102.999 373.802 107.17 374.122 110.7 374.443C114.55 374.764 118.08 375.085 124.176 372.839C130.272 370.593 132.839 368.026 135.727 365.459C138.294 362.892 141.182 360.005 147.599 357.759C154.016 355.513 158.187 355.833 161.717 356.154C165.567 356.475 169.096 356.796 175.193 354.55C181.289 352.304 183.856 349.737 186.744 347.17C189.31 344.603 192.198 341.716 198.615 339.47C205.033 337.224 209.204 337.544 212.733 337.865C216.584 338.186 220.113 338.507 226.209 336.261C232.306 334.015 234.873 331.448 237.76 328.881C240.327 326.314 243.215 323.427 249.632 321.181C256.049 318.935 260.221 319.255 263.75 319.576C267.6 319.897 271.13 320.218 277.226 317.972C283.323 315.726 285.889 313.159 288.777 310.592C291.344 308.025 294.232 305.138 300.649 302.891C307.066 300.645 311.237 300.966 314.767 301.287C318.617 301.608 322.147 301.929 328.243 299.683C334.339 297.437 336.906 294.87 339.794 292.303C342.361 289.736 345.249 286.849 351.666 284.602C358.083 282.356 362.254 282.677 365.784 282.998C369.634 283.319 373.163 283.64 379.26 281.394C385.356 279.148 387.923 276.581 390.811 274.014C393.377 271.447 396.265 268.559 402.682 266.313L403.324 267.918C397.228 270.164 394.661 272.731 391.773 275.298C389.206 277.864 386.319 280.752 379.901 282.998C373.484 285.244 369.313 284.923 365.784 284.602C361.933 284.282 358.404 283.961 352.307 286.207C346.211 288.453 343.644 291.02 340.756 293.587C338.19 296.153 335.302 299.041 328.885 301.287C322.467 303.533 318.296 303.212 314.767 302.891C310.917 302.571 307.387 302.25 301.291 304.496C295.194 306.742 292.627 309.309 289.74 311.876C287.173 314.442 284.285 317.33 277.868 319.576C271.451 321.822 267.279 321.501 263.75 321.181C259.9 320.86 256.37 320.539 250.274 322.785C244.178 325.031 241.611 327.598 238.723 330.165C236.156 332.731 233.268 335.619 226.851 337.865C220.434 340.111 216.263 339.79 212.733 339.47C208.883 339.149 205.354 338.828 199.257 341.074C193.161 343.32 190.594 345.887 187.706 348.454C185.139 351.021 182.252 353.908 175.834 356.154C169.417 358.4 165.246 358.079 161.717 357.759C157.866 357.438 154.337 357.117 148.24 359.363C142.144 361.609 139.577 364.176 136.69 366.743C134.123 369.31 131.235 372.197 124.818 374.443C118.4 376.689 114.229 376.368 110.7 376.048C107.17 375.727 103.641 375.406 97.2237 377.652Z" fill="currentColor"/><path d="M92.7316 365.138L92.0898 363.534C98.507 361.288 102.678 361.609 106.208 361.93C110.058 362.25 113.587 362.571 119.684 360.325C125.78 358.079 128.347 355.512 131.235 352.946C133.802 350.379 136.689 347.491 143.107 345.245C149.524 342.999 153.695 343.32 157.224 343.641C161.075 343.961 164.604 344.282 170.701 342.036C176.797 339.79 179.364 337.223 182.252 334.657C184.818 332.09 187.706 329.202 194.123 326.956C200.541 324.71 204.712 325.031 208.241 325.352C212.092 325.672 215.621 325.993 221.717 323.747C227.814 321.501 230.38 318.934 233.268 316.368C235.835 313.801 238.723 310.913 245.14 308.667C251.557 306.421 255.728 306.742 259.258 307.063C263.108 307.383 266.638 307.704 272.734 305.458C278.83 303.212 281.397 300.645 284.285 298.078C286.852 295.512 289.74 292.624 296.157 290.378C302.574 288.132 306.745 288.453 310.275 288.774C314.125 289.094 317.654 289.415 323.751 287.169C329.847 284.923 332.414 282.356 335.302 279.789C337.869 277.223 340.756 274.335 347.174 272.089C353.591 269.843 357.762 270.164 361.291 270.485C365.142 270.805 368.671 271.126 374.768 268.88C380.864 266.634 383.431 264.067 386.318 261.5C388.885 258.934 391.773 256.046 398.19 253.8L398.832 255.404C392.736 257.65 390.169 260.217 387.281 262.784C384.714 265.351 381.826 268.238 375.409 270.485C368.992 272.731 364.821 272.41 361.291 272.089C357.441 271.768 353.912 271.447 347.815 273.693C341.719 275.939 339.152 278.506 336.264 281.073C333.697 283.64 330.81 286.528 324.393 288.774C317.975 291.02 313.804 290.699 310.275 290.378C306.424 290.057 302.895 289.736 296.799 291.982C290.702 294.228 288.135 296.795 285.248 299.362C282.681 301.929 279.793 304.817 273.376 307.063C266.959 309.309 262.787 308.988 259.258 308.667C255.408 308.346 251.878 308.025 245.782 310.271C239.686 312.517 237.119 315.084 234.231 317.651C231.664 320.218 228.776 323.106 222.359 325.352C215.942 327.598 211.771 327.277 208.241 326.956C204.391 326.635 200.861 326.314 194.765 328.56C188.669 330.806 186.102 333.373 183.214 335.94C180.647 338.507 177.759 341.395 171.342 343.641C164.925 345.887 160.754 345.566 157.224 345.245C153.374 344.924 149.845 344.603 143.748 346.849C137.652 349.095 135.085 351.662 132.197 354.229C129.63 356.796 126.743 359.684 120.326 361.93C113.908 364.176 109.737 363.855 106.208 363.534C102.357 363.213 98.8279 362.892 92.7316 365.138Z" fill="currentColor"/><path d="M88.2394 352.305L87.5977 350.701C94.0149 348.455 98.186 348.776 101.715 349.097C105.566 349.417 109.095 349.738 115.192 347.492C121.288 345.246 123.855 342.679 126.743 340.113C129.309 337.546 132.197 334.658 138.614 332.412C145.032 330.166 149.203 330.487 152.732 330.808C156.583 331.128 160.112 331.449 166.208 329.203C172.305 326.957 174.872 324.39 177.759 321.824C180.326 319.257 183.214 316.369 189.631 314.123C196.048 311.877 200.22 312.198 203.749 312.519C207.599 312.839 211.129 313.16 217.225 310.914C223.321 308.668 225.888 306.101 228.776 303.535C231.343 300.968 234.231 298.08 240.648 295.834C247.065 293.588 251.236 293.909 254.766 294.23C258.616 294.55 262.146 294.871 268.242 292.625C274.338 290.379 276.905 287.812 279.793 285.245C282.36 282.679 285.247 279.791 291.665 277.545C298.082 275.299 302.253 275.62 305.782 275.941C309.633 276.261 313.162 276.582 319.259 274.336C325.355 272.09 327.922 269.523 330.81 266.956C333.376 264.39 336.264 261.502 342.681 259.256C349.099 257.01 353.27 257.331 356.799 257.652C360.649 257.972 364.179 258.293 370.275 256.047C376.372 253.801 378.939 251.234 381.826 248.667C384.393 246.101 387.281 243.213 393.698 240.967L394.34 242.571C388.243 244.817 385.677 247.384 382.789 249.951C380.222 252.518 377.334 255.406 370.917 257.652C364.5 259.898 360.329 259.577 356.799 259.256C352.949 258.935 349.419 258.614 343.323 260.86C337.227 263.106 334.66 265.673 331.772 268.24C329.205 270.807 326.317 273.695 319.9 275.941C313.483 278.187 309.312 277.866 305.782 277.545C301.932 277.224 298.403 276.903 292.306 279.149C286.21 281.395 283.643 283.962 280.755 286.529C278.189 289.096 275.301 291.984 268.884 294.23C262.466 296.476 258.295 296.155 254.766 295.834C250.915 295.513 247.386 295.192 241.29 297.438C235.193 299.684 232.626 302.251 229.739 304.818C227.172 307.385 224.284 310.273 217.867 312.519C211.45 314.765 207.278 314.444 203.749 314.123C199.899 313.802 196.369 313.481 190.273 315.727C184.177 317.973 181.61 320.54 178.722 323.107C176.155 325.674 173.267 328.562 166.85 330.808C160.433 333.054 156.262 332.733 152.732 332.412C148.882 332.091 145.352 331.77 139.256 334.016C133.16 336.262 130.593 338.829 127.705 341.396C125.138 343.963 122.251 346.851 115.833 349.097C109.416 351.343 105.245 351.022 101.715 350.701C97.8652 350.38 94.3358 350.059 88.2394 352.305Z" fill="currentColor"/><path d="M83.4269 339.471L82.7852 337.867C89.2024 335.621 93.3735 335.942 96.903 336.263C100.753 336.584 104.283 336.904 110.379 334.658C116.475 332.412 119.042 329.845 121.93 327.279C124.497 324.712 127.385 321.824 133.802 319.578C140.219 317.332 144.39 317.653 147.92 317.974C151.77 318.294 155.3 318.615 161.396 316.369C167.492 314.123 170.059 311.556 172.947 308.99C175.514 306.423 178.401 303.535 184.819 301.289C191.236 299.043 195.407 299.364 198.937 299.685C202.787 300.005 206.316 300.326 212.413 298.08C218.509 295.834 221.076 293.267 223.964 290.701C226.53 288.134 229.418 285.246 235.835 283C242.253 280.754 246.424 281.075 249.953 281.396C253.804 281.716 257.333 282.037 263.429 279.791C269.526 277.545 272.093 274.978 274.98 272.411C277.547 269.845 280.435 266.957 286.852 264.711C293.269 262.465 297.44 262.786 300.97 263.107C304.82 263.427 308.35 263.748 314.446 261.502C320.542 259.256 323.109 256.689 325.997 254.122C328.564 251.556 331.452 248.668 337.869 246.422C344.286 244.176 348.457 244.497 351.987 244.818C355.837 245.138 359.366 245.459 365.463 243.213C371.559 240.967 374.126 238.4 377.014 235.833C379.581 233.267 382.468 230.379 388.886 228.133L389.527 229.737C383.431 231.983 380.864 234.55 377.976 237.117C375.409 239.684 372.522 242.572 366.105 244.818C359.687 247.064 355.516 246.743 351.987 246.422C348.136 246.101 344.607 245.78 338.511 248.026C332.414 250.272 329.847 252.839 326.96 255.406C324.393 257.973 321.505 260.861 315.088 263.107C308.671 265.353 304.499 265.032 300.97 264.711C297.12 264.39 293.59 264.069 287.494 266.315C281.398 268.561 278.831 271.128 275.943 273.695C273.376 276.262 270.488 279.15 264.071 281.396C257.654 283.642 253.483 283.321 249.953 283C246.103 282.679 242.573 282.358 236.477 284.604C230.381 286.85 227.814 289.417 224.926 291.984C222.359 294.551 219.472 297.439 213.054 299.685C206.637 301.931 202.466 301.61 198.937 301.289C195.086 300.968 191.557 300.647 185.46 302.893C179.364 305.139 176.797 307.706 173.909 310.273C171.342 312.84 168.455 315.728 162.038 317.974C155.62 320.22 151.449 319.899 147.92 319.578C144.069 319.257 140.54 318.936 134.444 321.182C128.347 323.428 125.78 325.995 122.893 328.562C120.326 331.129 117.438 334.017 111.021 336.263C104.604 338.509 100.432 338.188 96.903 337.867C93.3735 337.546 89.8441 337.225 83.4269 339.471Z" fill="currentColor"/><path d="M78.9308 326.956L78.2891 325.351C84.7063 323.105 88.8774 323.426 92.4069 323.747C96.2572 324.068 99.7867 324.389 105.883 322.143C111.979 319.897 114.546 317.33 117.434 314.763C120.001 312.196 122.889 309.308 129.306 307.062C135.723 304.816 139.894 305.137 143.424 305.458C147.274 305.779 150.803 306.1 156.9 303.854C162.996 301.608 165.563 299.041 168.451 296.474C171.018 293.907 173.905 291.019 180.322 288.773C186.74 286.527 190.911 286.848 194.44 287.169C198.291 287.49 201.82 287.811 207.916 285.565C214.013 283.319 216.58 280.752 219.467 278.185C222.034 275.618 224.922 272.73 231.339 270.484C237.757 268.238 241.928 268.559 245.457 268.88C249.307 269.201 252.837 269.522 258.933 267.276C265.03 265.03 267.596 262.463 270.484 259.896C273.051 257.329 275.939 254.441 282.356 252.195C288.773 249.949 292.944 250.27 296.474 250.591C300.324 250.912 303.854 251.233 309.95 248.987C316.046 246.741 318.613 244.174 321.501 241.607C324.068 239.04 326.956 236.152 333.373 233.906C339.79 231.66 343.961 231.981 347.491 232.302C351.341 232.623 354.87 232.944 360.967 230.698C367.063 228.452 369.63 225.885 372.518 223.318C375.085 220.751 377.972 217.863 384.389 215.617L385.031 217.221C378.935 219.468 376.368 222.034 373.48 224.601C370.913 227.168 368.026 230.056 361.608 232.302C355.191 234.548 351.02 234.227 347.491 233.906C343.64 233.585 340.111 233.265 334.015 235.511C327.918 237.757 325.351 240.323 322.464 242.89C319.897 245.457 317.009 248.345 310.592 250.591C304.174 252.837 300.003 252.516 296.474 252.195C292.624 251.874 289.094 251.554 282.998 253.8C276.901 256.046 274.335 258.612 271.447 261.179C268.88 263.746 265.992 266.634 259.575 268.88C253.158 271.126 248.987 270.805 245.457 270.484C241.607 270.163 238.077 269.843 231.981 272.089C225.885 274.335 223.318 276.901 220.43 279.468C217.863 282.035 214.975 284.923 208.558 287.169C202.141 289.415 197.97 289.094 194.44 288.773C190.59 288.452 187.061 288.132 180.964 290.378C174.868 292.624 172.301 295.19 169.413 297.757C166.846 300.324 163.959 303.212 157.542 305.458C151.124 307.704 146.953 307.383 143.424 307.062C139.573 306.741 136.044 306.421 129.948 308.667C123.851 310.913 121.284 313.479 118.397 316.046C115.83 318.613 112.942 321.501 106.525 323.747C100.108 325.993 95.9363 325.672 92.4069 325.351C88.5566 325.03 85.0272 324.71 78.9308 326.956Z" fill="currentColor"/><path d="M74.4424 314.122L73.8008 312.517C80.218 310.271 84.3891 310.592 87.9186 310.913C91.7689 311.234 95.2984 311.555 101.395 309.309C107.491 307.063 110.058 304.496 112.946 301.929C115.513 299.362 118.4 296.474 124.817 294.228C131.235 291.982 135.406 292.303 138.935 292.624C142.786 292.945 146.315 293.266 152.411 291.02C158.508 288.774 161.075 286.207 163.962 283.64C166.529 281.073 169.417 278.185 175.834 275.939C182.251 273.693 186.423 274.014 189.952 274.335C193.802 274.656 197.332 274.977 203.428 272.731C209.525 270.485 212.091 267.918 214.979 265.351C217.546 262.784 220.434 259.896 226.851 257.65C233.268 255.404 237.439 255.725 240.969 256.046C244.819 256.367 248.349 256.688 254.445 254.442C260.541 252.196 263.108 249.629 265.996 247.062C268.563 244.495 271.451 241.607 277.868 239.361C284.285 237.115 288.456 237.436 291.986 237.757C295.836 238.078 299.365 238.399 305.462 236.153C311.558 233.907 314.125 231.34 317.013 228.773C319.579 226.206 322.467 223.318 328.884 221.072C335.302 218.826 339.473 219.147 343.002 219.468C346.853 219.789 350.382 220.11 356.478 217.864C362.575 215.618 365.142 213.051 368.029 210.484C370.596 207.917 373.484 205.029 379.901 202.783L380.543 204.388C374.447 206.634 371.88 209.2 368.992 211.767C366.425 214.334 363.537 217.222 357.12 219.468C350.703 221.714 346.532 221.393 343.002 221.072C339.152 220.751 335.622 220.431 329.526 222.677C323.43 224.923 320.863 227.489 317.975 230.056C315.408 232.623 312.521 235.511 306.103 237.757C299.686 240.003 295.515 239.682 291.986 239.361C288.135 239.04 284.606 238.72 278.509 240.966C272.413 243.212 269.846 245.778 266.958 248.345C264.392 250.912 261.504 253.8 255.087 256.046C248.669 258.292 244.498 257.971 240.969 257.65C237.119 257.329 233.589 257.009 227.493 259.255C221.396 261.501 218.829 264.067 215.942 266.634C213.375 269.201 210.487 272.089 204.07 274.335C197.653 276.581 193.481 276.26 189.952 275.939C186.102 275.618 182.572 275.298 176.476 277.544C170.38 279.79 167.813 282.357 164.925 284.923C162.358 287.49 159.47 290.378 153.053 292.624C146.636 294.87 142.465 294.549 138.935 294.228C135.085 293.907 131.556 293.587 125.459 295.833C119.363 298.079 116.796 300.646 113.908 303.212C111.341 305.779 108.454 308.667 102.036 310.913C95.6192 313.159 91.4481 312.838 87.9186 312.517C84.0683 312.196 80.5388 311.876 74.4424 314.122Z" fill="currentColor"/><path d="M69.626 301.609L68.9844 300.005C75.4016 297.759 79.5727 298.079 83.1022 298.4C86.9525 298.721 90.482 299.042 96.5784 296.796C102.675 294.55 105.241 291.983 108.129 289.416C110.696 286.849 113.584 283.962 120.001 281.716C126.418 279.47 130.589 279.79 134.119 280.111C137.969 280.432 141.499 280.753 147.595 278.507C153.691 276.261 156.258 273.694 159.146 271.127C161.713 268.56 164.601 265.673 171.018 263.427C177.435 261.181 181.606 261.501 185.136 261.822C188.986 262.143 192.515 262.464 198.612 260.218C204.708 257.972 207.275 255.405 210.163 252.838C212.73 250.271 215.617 247.384 222.035 245.138C228.452 242.892 232.623 243.212 236.152 243.533C240.003 243.854 243.532 244.175 249.629 241.929C255.725 239.683 258.292 237.116 261.179 234.549C263.746 231.982 266.634 229.095 273.051 226.849C279.469 224.603 283.64 224.923 287.169 225.244C291.019 225.565 294.549 225.886 300.645 223.64C306.742 221.394 309.308 218.827 312.196 216.26C314.763 213.693 317.651 210.806 324.068 208.56C330.485 206.313 334.656 206.634 338.186 206.955C342.036 207.276 345.566 207.597 351.662 205.351C357.758 203.105 360.325 200.538 363.213 197.971C365.78 195.404 368.668 192.517 375.085 190.271L375.727 191.875C369.63 194.121 367.063 196.688 364.176 199.255C361.609 201.821 358.721 204.709 352.304 206.955C345.887 209.201 341.715 208.88 338.186 208.56C334.336 208.239 330.806 207.918 324.71 210.164C318.613 212.41 316.047 214.977 313.159 217.544C310.592 220.11 307.704 222.998 301.287 225.244C294.87 227.49 290.699 227.169 287.169 226.849C283.319 226.528 279.789 226.207 273.693 228.453C267.597 230.699 265.03 233.266 262.142 235.833C259.575 238.399 256.687 241.287 250.27 243.533C243.853 245.779 239.682 245.458 236.152 245.138C232.302 244.817 228.773 244.496 222.676 246.742C216.58 248.988 214.013 251.555 211.125 254.122C208.558 256.689 205.671 259.576 199.254 261.822C192.836 264.068 188.665 263.747 185.136 263.427C181.285 263.106 177.756 262.785 171.66 265.031C165.563 267.277 162.996 269.844 160.109 272.411C157.542 274.978 154.654 277.865 148.237 280.111C141.82 282.357 137.648 282.036 134.119 281.716C130.269 281.395 126.739 281.074 120.643 283.32C114.547 285.566 111.98 288.133 109.092 290.7C106.525 293.267 103.637 296.154 97.22 298.4C90.8028 300.646 86.6317 300.325 83.1022 300.005C79.5727 299.684 76.0432 299.363 69.626 301.609Z" fill="currentColor"/><path d="M65.1338 288.773L64.4922 287.169C70.9094 284.923 75.0805 285.244 78.61 285.564C82.4603 285.885 85.9897 286.206 92.0861 283.96C98.1824 281.714 100.749 279.147 103.637 276.58C106.204 274.013 109.092 271.126 115.509 268.88C121.926 266.634 126.097 266.955 129.627 267.275C133.477 267.596 137.007 267.917 143.103 265.671C149.199 263.425 151.766 260.858 154.654 258.291C157.221 255.724 160.108 252.837 166.526 250.591C172.943 248.345 177.114 248.666 180.643 248.986C184.494 249.307 188.023 249.628 194.12 247.382C200.216 245.136 202.783 242.569 205.671 240.002C208.237 237.435 211.125 234.548 217.542 232.302C223.96 230.056 228.131 230.376 231.66 230.697C235.51 231.018 239.04 231.339 245.136 229.093C251.233 226.847 253.8 224.28 256.687 221.713C259.254 219.146 262.142 216.259 268.559 214.013C274.976 211.767 279.148 212.087 282.677 212.408C286.527 212.729 290.057 213.05 296.153 210.804C302.249 208.558 304.816 205.991 307.704 203.424C310.271 200.857 313.159 197.97 319.576 195.724C325.993 193.478 330.164 193.798 333.694 194.119C337.544 194.44 341.073 194.761 347.17 192.515C353.266 190.269 355.833 187.702 358.721 185.135C361.288 182.568 364.175 179.681 370.593 177.435L371.234 179.039C365.138 181.285 362.571 183.852 359.683 186.419C357.117 188.986 354.229 191.873 347.812 194.119C341.394 196.365 337.223 196.044 333.694 195.724C329.843 195.403 326.314 195.082 320.218 197.328C314.121 199.574 311.554 202.141 308.667 204.708C306.1 207.275 303.212 210.162 296.795 212.408C290.378 214.654 286.206 214.333 282.677 214.013C278.827 213.692 275.297 213.371 269.201 215.617C263.104 217.863 260.538 220.43 257.65 222.997C255.083 225.564 252.195 228.451 245.778 230.697C239.361 232.943 235.19 232.622 231.66 232.302C227.81 231.981 224.28 231.66 218.184 233.906C212.088 236.152 209.521 238.719 206.633 241.286C204.066 243.853 201.178 246.74 194.761 248.986C188.344 251.232 184.173 250.912 180.643 250.591C176.793 250.27 173.264 249.949 167.167 252.195C161.071 254.441 158.504 257.008 155.616 259.575C153.05 262.142 150.162 265.029 143.745 267.275C137.327 269.521 133.156 269.201 129.627 268.88C125.776 268.559 122.247 268.238 116.151 270.484C110.054 272.73 107.487 275.297 104.6 277.864C102.033 280.431 99.145 283.318 92.7278 285.564C86.3106 287.81 82.1395 287.49 78.61 287.169C74.7597 286.848 71.2302 286.527 65.1338 288.773Z" fill="currentColor"/><path d="M60.6418 276.26L60 274.656C66.4172 272.41 70.5885 272.731 74.1179 273.052C77.9682 273.373 81.4976 273.693 87.594 271.447C93.6903 269.201 96.2572 266.634 99.145 264.068C101.712 261.501 104.6 258.613 111.017 256.367C117.434 254.121 121.605 254.442 125.135 254.763C128.985 255.084 132.514 255.404 138.611 253.158C144.707 250.912 147.274 248.345 150.162 245.779C152.729 243.212 155.616 240.324 162.034 238.078C168.451 235.832 172.622 236.153 176.151 236.474C180.002 236.795 183.531 237.115 189.628 234.869C195.724 232.623 198.291 230.056 201.178 227.49C203.745 224.923 206.633 222.035 213.05 219.789C219.467 217.543 223.639 217.864 227.168 218.185C231.018 218.505 234.548 218.826 240.644 216.58C246.741 214.334 249.307 211.767 252.195 209.201C254.762 206.634 257.65 203.746 264.067 201.5C270.484 199.254 274.655 199.575 278.185 199.896C282.035 200.216 285.565 200.537 291.661 198.291C297.757 196.045 300.324 193.478 303.212 190.912C305.779 188.345 308.666 185.457 315.084 183.211C321.501 180.965 325.672 181.286 329.202 181.607C333.052 181.927 336.581 182.248 342.678 180.002C348.774 177.756 351.341 175.189 354.229 172.623C356.796 170.056 359.683 167.168 366.1 164.922L366.742 166.526C360.646 168.772 358.079 171.339 355.191 173.906C352.624 176.473 349.737 179.361 343.319 181.607C336.902 183.853 332.731 183.532 329.202 183.211C325.351 182.89 321.822 182.569 315.725 184.815C309.629 187.061 307.062 189.628 304.174 192.195C301.608 194.762 298.72 197.65 292.303 199.896C285.885 202.142 281.714 201.821 278.185 201.5C274.334 201.179 270.805 200.858 264.709 203.104C258.612 205.35 256.045 207.917 253.158 210.484C250.591 213.051 247.703 215.939 241.286 218.185C234.869 220.431 230.698 220.11 227.168 219.789C223.318 219.468 219.788 219.147 213.692 221.393C207.596 223.639 205.029 226.206 202.141 228.773C199.574 231.34 196.686 234.228 190.269 236.474C183.852 238.72 179.681 238.399 176.151 238.078C172.301 237.757 168.772 237.436 162.675 239.682C156.579 241.928 154.012 244.495 151.124 247.062C148.557 249.629 145.67 252.517 139.252 254.763C132.835 257.009 128.664 256.688 125.135 256.367C121.284 256.046 117.755 255.725 111.658 257.971C105.562 260.217 102.995 262.784 100.107 265.351C97.5406 267.918 94.6529 270.806 88.2357 273.052C81.8185 275.298 77.6474 274.977 74.1179 274.656C70.2676 274.335 66.7381 274.014 60.6418 276.26Z" fill="currentColor"/><path d="M55.8292 263.426L55.1875 261.822C61.6047 259.576 65.7759 259.897 69.3054 260.218C73.1557 260.539 76.6851 260.859 82.7814 258.613C88.8778 256.367 91.4447 253.801 94.3324 251.234C96.8993 248.667 99.7871 245.779 106.204 243.533C112.621 241.287 116.793 241.608 120.322 241.929C124.172 242.25 127.702 242.57 133.798 240.324C139.895 238.078 142.461 235.511 145.349 232.945C147.916 230.378 150.804 227.49 157.221 225.244C163.638 222.998 167.809 223.319 171.339 223.64C175.189 223.961 178.719 224.281 184.815 222.035C190.911 219.789 193.478 217.222 196.366 214.656C198.933 212.089 201.821 209.201 208.238 206.955C214.655 204.709 218.826 205.03 222.356 205.351C226.206 205.672 229.735 205.992 235.832 203.746C241.928 201.5 244.495 198.933 247.383 196.367C249.95 193.8 252.837 190.912 259.254 188.666C265.672 186.42 269.843 186.741 273.372 187.062C277.223 187.382 280.752 187.703 286.848 185.457C292.945 183.211 295.512 180.644 298.399 178.078C300.966 175.511 303.854 172.623 310.271 170.377C316.688 168.131 320.86 168.452 324.389 168.773C328.239 169.093 331.769 169.414 337.865 167.168C343.961 164.922 346.528 162.355 349.416 159.789C351.983 157.222 354.871 154.334 361.288 152.088L361.93 153.692C355.833 155.938 353.266 158.505 350.379 161.072C347.812 163.639 344.924 166.527 338.507 168.773C332.09 171.019 327.919 170.698 324.389 170.377C320.539 170.056 317.009 169.735 310.913 171.981C304.817 174.227 302.25 176.794 299.362 179.361C296.795 181.928 293.907 184.816 287.49 187.062C281.073 189.308 276.902 188.987 273.372 188.666C269.522 188.345 265.993 188.024 259.896 190.27C253.8 192.516 251.233 195.083 248.345 197.65C245.778 200.217 242.891 203.105 236.473 205.351C230.056 207.597 225.885 207.276 222.356 206.955C218.505 206.634 214.976 206.313 208.879 208.559C202.783 210.805 200.216 213.372 197.329 215.939C194.762 218.506 191.874 221.394 185.457 223.64C179.039 225.886 174.868 225.565 171.339 225.244C167.489 224.923 163.959 224.602 157.863 226.848C151.766 229.094 149.2 231.661 146.312 234.228C143.745 236.795 140.857 239.683 134.44 241.929C128.023 244.175 123.852 243.854 120.322 243.533C116.472 243.212 112.942 242.891 106.846 245.137C100.75 247.383 98.1827 249.95 95.295 252.517C92.7281 255.084 89.8404 257.972 83.4232 260.218C77.006 262.464 72.8348 262.143 69.3054 261.822C65.7759 261.501 62.2464 261.18 55.8292 263.426Z" fill="currentColor"/><path d="M51.3371 250.913L50.6953 249.308C57.1125 247.062 61.2837 247.383 64.8131 247.704C68.6635 248.025 72.193 248.346 78.2893 246.1C84.3856 243.854 86.9525 241.287 89.8403 238.72C92.4072 236.153 95.2948 233.265 101.712 231.019C108.129 228.773 112.3 229.094 115.83 229.415C119.68 229.736 123.21 230.057 129.306 227.811C135.402 225.565 137.969 222.998 140.857 220.431C143.424 217.864 146.312 214.976 152.729 212.73C159.146 210.484 163.317 210.805 166.847 211.126C170.697 211.447 174.226 211.768 180.323 209.522C186.419 207.276 188.986 204.709 191.874 202.142C194.441 199.575 197.328 196.687 203.746 194.441C210.163 192.195 214.334 192.516 217.863 192.837C221.714 193.158 225.243 193.479 231.34 191.233C237.436 188.987 240.003 186.42 242.89 183.853C245.457 181.286 248.345 178.398 254.762 176.152C261.179 173.906 265.351 174.227 268.88 174.548C272.73 174.869 276.26 175.19 282.356 172.944C288.453 170.698 291.02 168.131 293.907 165.564C296.474 162.997 299.362 160.109 305.779 157.863C312.196 155.617 316.367 155.938 319.897 156.259C323.747 156.58 327.277 156.901 333.373 154.655C339.469 152.409 342.036 149.842 344.924 147.275C347.491 144.708 350.379 141.82 356.796 139.574L357.437 141.179C351.341 143.425 348.774 145.991 345.887 148.558C343.32 151.125 340.432 154.013 334.015 156.259C327.598 158.505 323.426 158.184 319.897 157.863C316.047 157.542 312.517 157.222 306.421 159.468C300.324 161.714 297.758 164.28 294.87 166.847C292.303 169.414 289.415 172.302 282.998 174.548C276.581 176.794 272.41 176.473 268.88 176.152C265.03 175.831 261.5 175.511 255.404 177.757C249.308 180.003 246.741 182.569 243.853 185.136C241.286 187.703 238.398 190.591 231.981 192.837C225.564 195.083 221.393 194.762 217.863 194.441C214.013 194.12 210.484 193.8 204.387 196.046C198.291 198.292 195.724 200.858 192.836 203.425C190.269 205.992 187.382 208.88 180.964 211.126C174.547 213.372 170.376 213.051 166.847 212.73C162.996 212.409 159.467 212.089 153.371 214.335C147.274 216.581 144.707 219.147 141.82 221.714C139.253 224.281 136.365 227.169 129.948 229.415C123.531 231.661 119.359 231.34 115.83 231.019C111.98 230.698 108.45 230.378 102.354 232.624C96.2575 234.87 93.6905 237.437 90.8028 240.003C88.2359 242.57 85.3482 245.458 78.931 247.704C72.5138 249.95 68.3426 249.629 64.8131 249.308C60.9628 248.987 57.4334 248.667 51.3371 250.913Z" fill="currentColor"/><path d="M46.8487 238.08L46.207 236.475C52.6242 234.229 56.7954 234.55 60.3249 234.871C64.1752 235.192 67.7047 235.513 73.801 233.267C79.8974 231.021 82.4642 228.454 85.352 225.887C87.9189 223.32 90.8065 220.432 97.2237 218.186C103.641 215.94 107.812 216.261 111.342 216.582C115.192 216.903 118.721 217.224 124.818 214.978C130.914 212.732 133.481 210.165 136.369 207.598C138.936 205.031 141.823 202.143 148.24 199.897C154.658 197.651 158.829 197.972 162.358 198.293C166.209 198.614 169.738 198.935 175.834 196.689C181.931 194.443 184.498 191.876 187.385 189.309C189.952 186.742 192.84 183.854 199.257 181.608C205.674 179.362 209.846 179.683 213.375 180.004C217.225 180.325 220.755 180.646 226.851 178.4C232.947 176.154 235.514 173.587 238.402 171.02C240.969 168.453 243.857 165.565 250.274 163.319C256.691 161.073 260.862 161.394 264.392 161.715C268.242 162.036 271.772 162.357 277.868 160.111C283.964 157.865 286.531 155.298 289.419 152.731C291.986 150.164 294.874 147.276 301.291 145.03C307.708 142.784 311.879 143.105 315.409 143.426C319.259 143.747 322.788 144.068 328.885 141.822C334.981 139.576 337.548 137.009 340.436 134.442C343.003 131.875 345.89 128.987 352.307 126.741L352.949 128.346C346.853 130.592 344.286 133.158 341.398 135.725C338.831 138.292 335.944 141.18 329.526 143.426C323.109 145.672 318.938 145.351 315.409 145.03C311.558 144.709 308.029 144.389 301.932 146.635C295.836 148.881 293.269 151.447 290.382 154.014C287.815 156.581 284.927 159.469 278.51 161.715C272.092 163.961 267.921 163.64 264.392 163.319C260.542 162.998 257.012 162.678 250.916 164.924C244.819 167.17 242.253 169.736 239.365 172.303C236.798 174.87 233.91 177.758 227.493 180.004C221.076 182.25 216.905 181.929 213.375 181.608C209.525 181.287 205.995 180.967 199.899 183.213C193.803 185.459 191.236 188.025 188.348 190.592C185.781 193.159 182.893 196.047 176.476 198.293C170.059 200.539 165.888 200.218 162.358 199.897C158.508 199.576 154.979 199.256 148.882 201.502C142.786 203.748 140.219 206.314 137.331 208.881C134.764 211.448 131.877 214.336 125.459 216.582C119.042 218.828 114.871 218.507 111.342 218.186C107.491 217.865 103.962 217.545 97.8655 219.791C91.7692 222.037 89.2023 224.604 86.3145 227.17C83.7477 229.737 80.8599 232.625 74.4427 234.871C68.0255 237.117 63.8543 236.796 60.3249 236.475C56.4745 236.154 52.9451 235.834 46.8487 238.08Z" fill="currentColor"/><path d="M42.0323 225.564L41.3906 223.96C47.8078 221.714 51.979 222.035 55.5084 222.355C59.3588 222.676 62.8883 222.997 68.9846 220.751C75.0809 218.505 77.6478 215.938 80.5356 213.371C83.1025 210.804 85.9901 207.917 92.4073 205.671C98.8245 203.425 102.996 203.746 106.525 204.066C110.375 204.387 113.905 204.708 120.001 202.462C126.098 200.216 128.665 197.649 131.552 195.082C134.119 192.515 137.007 189.628 143.424 187.382C149.841 185.136 154.013 185.457 157.542 185.777C161.392 186.098 164.922 186.419 171.018 184.173C177.114 181.927 179.681 179.36 182.569 176.793C185.136 174.226 188.024 171.339 194.441 169.093C200.858 166.847 205.029 167.167 208.559 167.488C212.409 167.809 215.938 168.13 222.035 165.884C228.131 163.638 230.698 161.071 233.586 158.504C236.153 155.937 239.04 153.05 245.458 150.804C251.875 148.558 256.046 148.878 259.575 149.199C263.426 149.52 266.955 149.841 273.052 147.595C279.148 145.349 281.715 142.782 284.602 140.215C287.169 137.648 290.057 134.761 296.474 132.515C302.892 130.269 307.063 130.589 310.592 130.91C314.442 131.231 317.972 131.552 324.068 129.306C330.165 127.06 332.732 124.493 335.619 121.926C338.186 119.359 341.074 116.472 347.491 114.226L348.133 115.83C342.036 118.076 339.47 120.643 336.582 123.21C334.015 125.777 331.127 128.664 324.71 130.91C318.293 133.156 314.122 132.835 310.592 132.515C306.742 132.194 303.212 131.873 297.116 134.119C291.02 136.365 288.453 138.932 285.565 141.499C282.998 144.066 280.11 146.953 273.693 149.199C267.276 151.445 263.105 151.124 259.575 150.804C255.725 150.483 252.196 150.162 246.099 152.408C240.003 154.654 237.436 157.221 234.548 159.788C231.981 162.355 229.094 165.242 222.677 167.488C216.259 169.734 212.088 169.414 208.559 169.093C204.708 168.772 201.179 168.451 195.083 170.697C188.986 172.943 186.419 175.51 183.532 178.077C180.965 180.644 178.077 183.531 171.66 185.777C165.243 188.023 161.071 187.703 157.542 187.382C153.692 187.061 150.162 186.74 144.066 188.986C137.969 191.232 135.403 193.799 132.515 196.366C129.948 198.933 127.06 201.82 120.643 204.066C114.226 206.312 110.055 205.992 106.525 205.671C102.675 205.35 99.1454 205.029 93.0491 207.275C86.9528 209.521 84.3859 212.088 81.4981 214.655C78.9312 217.222 76.0435 220.109 69.6263 222.355C63.2091 224.601 59.0379 224.281 55.5084 223.96C51.979 223.639 48.4495 223.318 42.0323 225.564Z" fill="currentColor"/><path d="M37.5401 212.73L36.8984 211.126C43.3156 208.88 47.4868 209.201 51.0163 209.521C54.8666 209.842 58.3961 210.163 64.4924 207.917C70.5888 205.671 73.1556 203.104 76.0433 200.537C78.6102 197.97 81.498 195.083 87.9152 192.837C94.3324 190.591 98.5035 190.912 102.033 191.232C105.883 191.553 109.413 191.874 115.509 189.628C121.605 187.382 124.172 184.815 127.06 182.248C129.627 179.681 132.515 176.794 138.932 174.548C145.349 172.302 149.52 172.623 153.05 172.943C156.9 173.264 160.43 173.585 166.526 171.339C172.622 169.093 175.189 166.526 178.077 163.959C180.644 161.392 183.531 158.505 189.949 156.259C196.366 154.013 200.537 154.333 204.067 154.654C207.917 154.975 211.446 155.296 217.543 153.05C223.639 150.804 226.206 148.237 229.094 145.67C231.66 143.103 234.548 140.216 240.965 137.97C247.383 135.724 251.554 136.044 255.083 136.365C258.934 136.686 262.463 137.007 268.559 134.761C274.656 132.515 277.223 129.948 280.11 127.381C282.677 124.814 285.565 121.927 291.982 119.681C298.399 117.435 302.57 117.755 306.1 118.076C309.95 118.397 313.48 118.718 319.576 116.472C325.672 114.226 328.239 111.659 331.127 109.092C333.694 106.525 336.582 103.638 342.999 101.392L343.641 102.996C337.544 105.242 334.977 107.809 332.09 110.376C329.523 112.943 326.635 115.83 320.218 118.076C313.801 120.322 309.629 120.001 306.1 119.681C302.25 119.36 298.72 119.039 292.624 121.285C286.527 123.531 283.961 126.098 281.073 128.665C278.506 131.232 275.618 134.119 269.201 136.365C262.784 138.611 258.613 138.291 255.083 137.97C251.233 137.649 247.703 137.328 241.607 139.574C235.511 141.82 232.944 144.387 230.056 146.954C227.489 149.521 224.602 152.408 218.184 154.654C211.767 156.9 207.596 156.58 204.067 156.259C200.216 155.938 196.687 155.617 190.59 157.863C184.494 160.109 181.927 162.676 179.039 165.243C176.472 167.81 173.585 170.697 167.168 172.943C160.75 175.189 156.579 174.869 153.05 174.548C149.199 174.227 145.67 173.906 139.574 176.152C133.477 178.398 130.91 180.965 128.023 183.532C125.456 186.099 122.568 188.986 116.151 191.232C109.734 193.478 105.562 193.158 102.033 192.837C98.1827 192.516 94.6533 192.195 88.5569 194.441C82.4606 196.687 79.8937 199.254 77.0059 201.821C74.4391 204.388 71.5513 207.275 65.1341 209.521C58.7169 211.767 54.5457 211.447 51.0163 211.126C47.1659 210.805 43.6365 210.484 37.5401 212.73Z" fill="currentColor"/><path d="M33.0519 200.217L32.4102 198.613C38.8274 196.367 42.9986 196.688 46.528 197.009C50.3783 197.33 53.9077 197.65 60.0041 195.404C66.1004 193.158 68.6673 190.592 71.5551 188.025C74.122 185.458 77.0097 182.57 83.4269 180.324C89.8441 178.078 94.0153 178.399 97.5448 178.72C101.395 179.041 104.925 179.361 111.021 177.115C117.117 174.869 119.684 172.303 122.572 169.736C125.139 167.169 128.026 164.281 134.444 162.035C140.861 159.789 145.032 160.11 148.561 160.431C152.412 160.752 155.941 161.072 162.038 158.826C168.134 156.58 170.701 154.013 173.589 151.447C176.156 148.88 179.043 145.992 185.46 143.746C191.878 141.5 196.049 141.821 199.578 142.142C203.429 142.463 206.958 142.783 213.054 140.537C219.151 138.291 221.718 135.724 224.605 133.158C227.172 130.591 230.06 127.703 236.477 125.457C242.894 123.211 247.066 123.532 250.595 123.853C254.445 124.174 257.975 124.494 264.071 122.248C270.167 120.002 272.734 117.435 275.622 114.869C278.189 112.302 281.077 109.414 287.494 107.168C293.911 104.922 298.082 105.243 301.612 105.564C305.462 105.885 308.991 106.205 315.088 103.959C321.184 101.713 323.751 99.1464 326.639 96.5796C329.206 94.0127 332.093 91.1249 338.511 88.8789L339.152 90.4832C333.056 92.7292 330.489 95.2961 327.601 97.863C325.035 100.43 322.147 103.318 315.73 105.564C309.312 107.81 305.141 107.489 301.612 107.168C297.761 106.847 294.232 106.526 288.136 108.772C282.039 111.018 279.472 113.585 276.585 116.152C274.018 118.719 271.13 121.607 264.713 123.853C258.296 126.099 254.124 125.778 250.595 125.457C246.745 125.136 243.215 124.815 237.119 127.061C231.023 129.307 228.456 131.874 225.568 134.441C223.001 137.008 220.113 139.896 213.696 142.142C207.279 144.388 203.108 144.067 199.578 143.746C195.728 143.425 192.198 143.104 186.102 145.35C180.006 147.596 177.439 150.163 174.551 152.73C171.984 155.297 169.096 158.185 162.679 160.431C156.262 162.677 152.091 162.356 148.561 162.035C144.711 161.714 141.182 161.393 135.085 163.639C128.989 165.885 126.422 168.452 123.534 171.019C120.968 173.586 118.08 176.474 111.663 178.72C105.245 180.966 101.074 180.645 97.5448 180.324C93.6944 180.003 90.1649 179.682 84.0686 181.928C77.9723 184.174 75.4054 186.741 72.5177 189.308C69.9508 191.875 67.063 194.763 60.6458 197.009C54.2286 199.255 50.0575 198.934 46.528 198.613C42.6777 198.292 39.1482 197.971 33.0519 200.217Z" fill="currentColor"/><path d="M28.2394 187.383L27.5977 185.779C34.0149 183.533 38.1861 183.854 41.7155 184.175C45.5658 184.496 49.0953 184.816 55.1916 182.57C61.288 180.324 63.8548 177.758 66.7426 175.191C69.3095 172.624 72.1972 169.736 78.6144 167.49C85.0316 165.244 89.2028 165.565 92.7323 165.886C96.5826 166.207 100.112 166.527 106.208 164.281C112.305 162.035 114.872 159.469 117.759 156.902C120.326 154.335 123.214 151.447 129.631 149.201C136.048 146.955 140.22 147.276 143.749 147.597C147.599 147.918 151.129 148.238 157.225 145.992C163.321 143.746 165.888 141.18 168.776 138.613C171.343 136.046 174.231 133.158 180.648 130.912C187.065 128.666 191.236 128.987 194.766 129.308C198.616 129.629 202.146 129.949 208.242 127.703C214.338 125.457 216.905 122.89 219.793 120.324C222.36 117.757 225.247 114.869 231.665 112.623C238.082 110.377 242.253 110.698 245.783 111.019C249.633 111.34 253.162 111.66 259.259 109.414C265.355 107.168 267.922 104.601 270.81 102.035C273.376 99.4677 276.264 96.58 282.681 94.334C289.099 92.0879 293.27 92.4088 296.799 92.7297C300.65 93.0505 304.179 93.3714 310.275 91.1254C316.372 88.8793 318.939 86.3124 321.826 83.7456C324.393 81.1787 327.281 78.2909 333.698 76.0449L334.34 77.6492C328.243 79.8952 325.677 82.4621 322.789 85.029C320.222 87.5959 317.334 90.4836 310.917 92.7297C304.5 94.9757 300.329 94.6548 296.799 94.334C292.949 94.0131 289.419 93.6922 283.323 95.9383C277.227 98.1843 274.66 100.751 271.772 103.318C269.205 105.885 266.318 108.773 259.9 111.019C253.483 113.265 249.312 112.944 245.783 112.623C241.932 112.302 238.403 111.981 232.306 114.227C226.21 116.473 223.643 119.04 220.755 121.607C218.189 124.174 215.301 127.062 208.884 129.308C202.466 131.554 198.295 131.233 194.766 130.912C190.915 130.591 187.386 130.27 181.29 132.516C175.193 134.762 172.626 137.329 169.739 139.896C167.172 142.463 164.284 145.351 157.867 147.597C151.45 149.843 147.278 149.522 143.749 149.201C139.899 148.88 136.369 148.559 130.273 150.805C124.177 153.051 121.61 155.618 118.722 158.185C116.155 160.752 113.267 163.64 106.85 165.886C100.433 168.132 96.2617 167.811 92.7323 167.49C88.8819 167.169 85.3524 166.848 79.2561 169.094C73.1598 171.34 70.5929 173.907 67.7052 176.474C65.1383 179.041 62.2505 181.929 55.8333 184.175C49.4161 186.421 45.245 186.1 41.7155 185.779C38.1861 185.458 34.6566 185.137 28.2394 187.383Z" fill="currentColor"/><path d="M23.7433 174.869L23.1016 173.264C29.5188 171.018 33.6899 171.339 37.2194 171.66C41.0697 171.981 44.5992 172.302 50.6955 170.056C56.7918 167.81 59.3587 165.243 62.2465 162.676C64.8134 160.109 67.7011 157.221 74.1183 154.975C80.5355 152.729 84.7067 153.05 88.2362 153.371C92.0865 153.692 95.6159 154.013 101.712 151.767C107.809 149.521 110.375 146.954 113.263 144.387C115.83 141.82 118.718 138.932 125.135 136.686C131.552 134.44 135.723 134.761 139.253 135.082C143.103 135.403 146.633 135.724 152.729 133.478C158.825 131.232 161.392 128.665 164.28 126.098C166.847 123.531 169.735 120.643 176.152 118.397C182.569 116.151 186.74 116.472 190.27 116.793C194.12 117.114 197.649 117.435 203.746 115.189C209.842 112.943 212.409 110.376 215.297 107.809C217.864 105.242 220.751 102.354 227.169 100.108C233.586 97.8623 237.757 98.1831 241.286 98.504C245.137 98.8249 248.666 99.1457 254.762 96.8997C260.859 94.6537 263.426 92.0868 266.313 89.5199C268.88 86.953 271.768 84.0653 278.185 81.8193C284.602 79.5733 288.774 79.8941 292.303 80.215C296.153 80.5358 299.683 80.8567 305.779 78.6107C311.876 76.3647 314.442 73.7978 317.33 71.2309C319.897 68.664 322.785 65.7763 329.202 63.5303L329.844 65.1346C323.747 67.3806 321.18 69.9475 318.293 72.5143C315.726 75.0812 312.838 77.969 306.421 80.215C300.004 82.461 295.833 82.1401 292.303 81.8193C288.453 81.4984 284.923 81.1776 278.827 83.4236C272.731 85.6696 270.164 88.2365 267.276 90.8034C264.709 93.3703 261.821 96.258 255.404 98.504C248.987 100.75 244.816 100.429 241.286 100.108C237.436 99.7874 233.907 99.4666 227.81 101.713C221.714 103.959 219.147 106.526 216.259 109.092C213.692 111.659 210.805 114.547 204.387 116.793C197.97 119.039 193.799 118.718 190.27 118.397C186.419 118.076 182.89 117.756 176.794 120.002C170.697 122.248 168.13 124.815 165.243 127.381C162.676 129.948 159.788 132.836 153.371 135.082C146.954 137.328 142.782 137.007 139.253 136.686C135.403 136.365 131.873 136.045 125.777 138.291C119.68 140.537 117.114 143.104 114.226 145.67C111.659 148.237 108.771 151.125 102.354 153.371C95.9368 155.617 91.7656 155.296 88.2362 154.975C84.3858 154.655 80.8563 154.334 74.76 156.58C68.6637 158.826 66.0968 161.393 63.209 163.959C60.6421 166.526 57.7545 169.414 51.3373 171.66C44.9201 173.906 40.7488 173.585 37.2194 173.264C33.3691 172.944 29.8396 172.623 23.7433 174.869Z" fill="currentColor"/><path d="M19.255 162.035L18.6133 160.43C25.0305 158.184 29.2017 158.505 32.7311 158.826C36.5815 159.147 40.1109 159.468 46.2073 157.222C52.3036 154.976 54.8705 152.409 57.7582 149.842C60.3251 147.275 63.2128 144.387 69.63 142.141C76.0472 139.895 80.2185 140.216 83.7479 140.537C87.5982 140.858 91.1276 141.179 97.224 138.933C103.32 136.687 105.887 134.12 108.775 131.553C111.342 128.986 114.23 126.098 120.647 123.852C127.064 121.606 131.235 121.927 134.765 122.248C138.615 122.569 142.144 122.89 148.241 120.644C154.337 118.398 156.904 115.831 159.792 113.264C162.359 110.697 165.246 107.809 171.664 105.563C178.081 103.317 182.252 103.638 185.781 103.959C189.632 104.28 193.161 104.601 199.258 102.355C205.354 100.109 207.921 97.5418 210.808 94.975C213.375 92.4081 216.263 89.5203 222.68 87.2743C229.097 85.0283 233.269 85.3492 236.798 85.67C240.648 85.9909 244.178 86.3117 250.274 84.0657C256.371 81.8197 258.937 79.2528 261.825 76.6859C264.392 74.1191 267.28 71.2313 273.697 68.9853C280.114 66.7393 284.285 67.0601 287.815 67.381C291.665 67.7019 295.195 68.0227 301.291 65.7767C307.387 63.5307 309.954 60.9638 312.842 58.3969C315.409 55.83 318.296 52.9423 324.714 50.6963L325.355 52.3006C319.259 54.5466 316.692 57.1135 313.804 59.6804C311.238 62.2472 308.35 65.135 301.933 67.381C295.516 69.627 291.344 69.3062 287.815 68.9853C283.964 68.6644 280.435 68.3436 274.339 70.5896C268.242 72.8356 265.675 75.4025 262.788 77.9694C260.221 80.5363 257.333 83.424 250.916 85.67C244.499 87.916 240.328 87.5952 236.798 87.2743C232.948 86.9534 229.418 86.6326 223.322 88.8786C217.226 91.1246 214.659 93.6915 211.771 96.2584C209.204 98.8253 206.316 101.713 199.899 103.959C193.482 106.205 189.311 105.884 185.781 105.563C181.931 105.242 178.402 104.922 172.305 107.168C166.209 109.414 163.642 111.981 160.754 114.547C158.187 117.114 155.3 120.002 148.882 122.248C142.465 124.494 138.294 124.173 134.765 123.852C130.914 123.531 127.385 123.211 121.288 125.457C115.192 127.703 112.625 130.27 109.737 132.836C107.171 135.403 104.283 138.291 97.8657 140.537C91.4485 142.783 87.2774 142.462 83.7479 142.141C79.8976 141.821 76.3681 141.5 70.2718 143.746C64.1754 145.992 61.6085 148.559 58.7208 151.125C56.1539 153.692 53.2662 156.58 46.849 158.826C40.4318 161.072 36.2606 160.751 32.7311 160.43C28.8808 160.11 25.3514 159.789 19.255 162.035Z" fill="currentColor"/><path d="M14.4425 149.521L13.8008 147.917C20.218 145.671 24.3892 145.992 27.9186 146.312C31.769 146.633 35.2984 146.954 41.3948 144.708C47.4911 142.462 50.058 139.895 52.9457 137.328C55.5126 134.761 58.4003 131.874 64.8175 129.628C71.2347 127.382 75.406 127.703 78.9354 128.023C82.7857 128.344 86.3151 128.665 92.4115 126.419C98.5078 124.173 101.075 121.606 103.962 119.039C106.529 116.472 109.417 113.585 115.834 111.339C122.252 109.093 126.423 109.414 129.952 109.734C133.802 110.055 137.332 110.376 143.428 108.13C149.525 105.884 152.091 103.317 154.979 100.75C157.546 98.1834 160.434 95.2957 166.851 93.0497C173.268 90.8037 177.439 91.1245 180.969 91.4454C184.819 91.7662 188.349 92.0871 194.445 89.8411C200.541 87.5951 203.108 85.0282 205.996 82.4613C208.563 79.8944 211.451 77.0067 217.868 74.7607C224.285 72.5146 228.456 72.8355 231.986 73.1564C235.836 73.4772 239.365 73.7981 245.462 71.5521C251.558 69.306 254.125 66.7392 257.013 64.1723C259.58 61.6054 262.467 58.7176 268.884 56.4716C275.302 54.2256 279.473 54.5465 283.002 54.8673C286.853 55.1882 290.382 55.509 296.478 53.263C302.575 51.017 305.142 48.4501 308.029 45.8833C310.596 43.3164 313.484 40.4286 319.901 38.1826L320.543 39.7869C314.447 42.0329 311.88 44.5998 308.992 47.1667C306.425 49.7336 303.537 52.6213 297.12 54.8673C290.703 57.1133 286.532 56.7925 283.002 56.4716C279.152 56.1508 275.623 55.8299 269.526 58.0759C263.43 60.3219 260.863 62.8888 257.975 65.4557C255.408 68.0226 252.521 70.9103 246.103 73.1564C239.686 75.4024 235.515 75.0815 231.986 74.7607C228.135 74.4398 224.606 74.1189 218.51 76.365C212.413 78.611 209.846 81.1778 206.959 83.7447C204.392 86.3116 201.504 89.1994 195.087 91.4454C188.669 93.6914 184.498 93.3705 180.969 93.0497C177.119 92.7288 173.589 92.408 167.493 94.654C161.396 96.9 158.83 99.4669 155.942 102.034C153.375 104.601 150.487 107.488 144.07 109.734C137.653 111.98 133.482 111.66 129.952 111.339C126.102 111.018 122.572 110.697 116.476 112.943C110.38 115.189 107.813 117.756 104.925 120.323C102.358 122.89 99.4704 125.777 93.0532 128.023C86.636 130.269 82.4649 129.949 78.9354 129.628C75.0851 129.307 71.5556 128.986 65.4593 131.232C59.3629 133.478 56.796 136.045 53.9083 138.612C51.3414 141.179 48.4537 144.066 42.0365 146.312C35.6193 148.558 31.4481 148.238 27.9186 147.917C24.3892 147.596 20.8597 147.275 14.4425 149.521Z" fill="currentColor"/><path d="M9.9503 136.687L9.30859 135.083C15.7258 132.837 19.897 133.158 23.4264 133.478C27.2767 133.799 30.8062 134.12 36.9026 131.874C42.9989 129.628 45.5658 127.061 48.4535 124.494C51.0204 121.927 53.9081 119.04 60.3253 116.794C66.7425 114.548 70.9137 114.869 74.4431 115.189C78.2934 115.51 81.823 115.831 87.9193 113.585C94.0156 111.339 96.5825 108.772 99.4703 106.205C102.037 103.638 104.925 100.751 111.342 98.5047C117.759 96.2587 121.93 96.5795 125.46 96.9004C129.31 97.2213 132.84 97.5421 138.936 95.2961C145.032 93.0501 147.599 90.4832 150.487 87.9163C153.054 85.3495 155.942 82.4617 162.359 80.2157C168.776 77.9697 172.947 78.2905 176.477 78.6114C180.327 78.9322 183.856 79.2531 189.953 77.0071C196.049 74.7611 198.616 72.1942 201.504 69.6273C204.071 67.0604 206.958 64.1727 213.376 61.9267C219.793 59.6807 223.964 60.0015 227.493 60.3224C231.344 60.6432 234.873 60.9641 240.97 58.7181C247.066 56.4721 249.633 53.9052 252.52 51.3383C255.087 48.7714 257.975 45.8837 264.392 43.6376C270.809 41.3916 274.981 41.7125 278.51 42.0333C282.36 42.3542 285.89 42.6751 291.986 40.429C298.083 38.183 300.65 35.6161 303.537 33.0493C306.104 30.4824 308.992 27.5947 315.409 25.3486L316.051 26.9529C309.954 29.199 307.388 31.7658 304.5 34.3327C301.933 36.8996 299.045 39.7873 292.628 42.0333C286.211 44.2794 282.04 43.9585 278.51 43.6376C274.66 43.3168 271.13 42.9959 265.034 45.2419C258.938 47.488 256.371 50.0549 253.483 52.6217C250.916 55.1886 248.028 58.0764 241.611 60.3224C235.194 62.5684 231.023 62.2475 227.493 61.9267C223.643 61.6058 220.114 61.285 214.017 63.531C207.921 65.777 205.354 68.3439 202.466 70.9107C199.899 73.4776 197.012 76.3654 190.594 78.6114C184.177 80.8574 180.006 80.5365 176.477 80.2157C172.626 79.8948 169.097 79.574 163.001 81.82C156.904 84.066 154.337 86.6329 151.45 89.1998C148.883 91.7667 145.995 94.6544 139.578 96.9004C133.161 99.1464 128.989 98.8256 125.46 98.5047C121.61 98.1838 118.08 97.863 111.984 100.109C105.887 102.355 103.321 104.922 100.433 107.489C97.8659 110.056 94.9782 112.943 88.5611 115.189C82.1439 117.435 77.9726 117.115 74.4431 116.794C70.5928 116.473 67.0634 116.152 60.9671 118.398C54.8707 120.644 52.3038 123.211 49.4161 125.778C46.8492 128.345 43.9615 131.232 37.5443 133.478C31.1271 135.724 26.9559 135.404 23.4264 135.083C19.5761 134.762 16.0466 134.441 9.9503 136.687Z" fill="currentColor"/><path d="M5.45421 124.172L4.8125 122.568C11.2297 120.322 15.4009 120.643 18.9303 120.964C22.7806 121.285 26.3101 121.606 32.4064 119.359C38.5028 117.113 41.0697 114.547 43.9574 111.98C46.5243 109.413 49.412 106.525 55.8292 104.279C62.2464 102.033 66.4176 102.354 69.947 102.675C73.7974 102.996 77.3269 103.317 83.4232 101.07C89.5195 98.8245 92.0864 96.2576 94.9742 93.6907C97.5411 91.1238 100.429 88.2361 106.846 85.9901C113.263 83.7441 117.434 84.0649 120.964 84.3858C124.814 84.7066 128.344 85.0275 134.44 82.7815C140.536 80.5355 143.103 77.9686 145.991 75.4017C148.558 72.8348 151.445 69.9471 157.863 67.701C164.28 65.455 168.451 65.7759 171.981 66.0967C175.831 66.4176 179.36 66.7385 185.457 64.4924C191.553 62.2464 194.12 59.6796 197.008 57.1127C199.574 54.5458 202.462 51.6581 208.879 49.412C215.297 47.166 219.468 47.4869 222.997 47.8077C226.848 48.1286 230.377 48.4495 236.473 46.2034C242.57 43.9574 245.137 41.3905 248.024 38.8236C250.591 36.2568 253.479 33.369 259.896 31.123C266.313 28.877 270.485 29.1978 274.014 29.5187C277.864 29.8396 281.394 30.1604 287.49 27.9144C293.586 25.6684 296.153 23.1015 299.041 20.5346C301.608 17.9677 304.496 15.08 310.913 12.834L311.555 14.4383C305.458 16.6843 302.891 19.2512 300.004 21.8181C297.437 24.3849 294.549 27.2727 288.132 29.5187C281.715 31.7647 277.543 31.4439 274.014 31.123C270.164 30.8021 266.634 30.4813 260.538 32.7273C254.442 34.9733 251.875 37.5402 248.987 40.1071C246.42 42.674 243.532 45.5617 237.115 47.8077C230.698 50.0537 226.527 49.7329 222.997 49.412C219.147 49.0912 215.617 48.7703 209.521 51.0163C203.425 53.2623 200.858 55.8292 197.97 58.3961C195.403 60.963 192.516 63.8507 186.098 66.0967C179.681 68.3428 175.51 68.0219 171.981 67.701C168.13 67.3802 164.601 67.0593 158.504 69.3053C152.408 71.5514 149.841 74.1183 146.953 76.6851C144.387 79.252 141.499 82.1398 135.082 84.3858C128.664 86.6318 124.493 86.3109 120.964 85.9901C117.113 85.6692 113.584 85.3484 107.488 87.5944C101.391 89.8404 98.8245 92.4073 95.9367 94.9741C93.3698 97.541 90.4821 100.429 84.0649 102.675C77.6477 104.921 73.4765 104.6 69.947 104.279C66.0967 103.958 62.5673 103.637 56.4709 105.883C50.3746 108.129 47.8077 110.696 44.92 113.263C42.3531 115.83 39.4653 118.718 33.0481 120.964C26.6309 123.21 22.4598 122.889 18.9303 122.568C15.08 122.247 11.5505 121.606 5.45421 124.172Z" fill="currentColor"/><path d="M0.64171 111.338L0 109.734C6.4172 107.488 10.5884 107.809 14.1178 108.13C17.9681 108.451 21.4976 108.772 27.5939 106.526C33.6903 104.279 36.2572 101.713 39.1449 99.1457C41.7118 96.5789 44.5995 93.6911 51.0167 91.4451C57.4339 89.1991 61.6051 89.5199 65.1345 89.8408C68.9849 90.1617 72.5144 90.4825 78.6107 88.2365C84.707 85.9905 87.2739 83.4236 90.1617 80.8567C92.7286 78.2898 95.6162 75.4021 102.033 73.1561C108.451 70.9101 112.622 71.2309 116.151 71.5518C120.002 71.8727 123.531 72.1935 129.627 69.9475C135.724 67.7015 138.291 65.1346 141.178 62.5677C143.745 60.0008 146.633 57.1131 153.05 54.8671C159.467 52.621 163.639 52.9419 167.168 53.2628C171.018 53.5836 174.548 53.9045 180.644 51.6585C186.74 49.4124 189.307 46.8456 192.195 44.2787C194.762 41.7118 197.65 38.8241 204.067 36.578C210.484 34.332 214.655 34.6529 218.185 34.9737C222.035 35.2946 225.565 35.6155 231.661 33.3694C237.757 31.1234 240.324 28.5565 243.212 25.9897C245.779 23.4228 248.666 20.535 255.084 18.289C261.501 16.043 265.672 16.3639 269.202 16.6847C273.052 17.0056 276.581 17.3264 282.678 15.0804C288.774 12.8344 291.341 10.2675 294.229 7.70064C296.795 5.13376 299.683 2.24602 306.1 0L306.742 1.6043C300.646 3.85032 298.079 6.4172 295.191 8.98408C292.624 11.551 289.737 14.4387 283.319 16.6847C276.902 18.9307 272.731 18.6099 269.202 18.289C265.351 17.9682 261.822 17.6473 255.725 19.8933C249.629 22.1393 247.062 24.7062 244.174 27.2731C241.608 29.84 238.72 32.7277 232.303 34.9737C225.885 37.2198 221.714 36.8989 218.185 36.578C214.334 36.2572 210.805 35.9363 204.709 38.1823C198.612 40.4284 196.045 42.9952 193.158 45.5621C190.591 48.129 187.703 51.0167 181.286 53.2628C174.869 55.5088 170.698 55.1879 167.168 54.8671C163.318 54.5462 159.788 54.2253 153.692 56.4714C147.596 58.7174 145.029 61.2843 142.141 63.8511C139.574 66.418 136.686 69.3058 130.269 71.5518C123.852 73.7978 119.681 73.477 116.151 73.1561C112.301 72.8352 108.772 72.5144 102.675 74.7604C96.5789 77.0064 94.012 79.5733 91.1242 82.1402C88.5573 84.707 85.6696 87.5948 79.2524 89.8408C72.8352 92.0868 68.664 91.766 65.1345 91.4451C61.2842 91.1242 57.7548 90.8034 51.6584 93.0494C45.5621 95.2954 42.9952 97.8623 40.1075 100.429C37.5406 102.996 34.6528 105.884 28.2356 108.13C21.8184 110.376 17.6473 110.055 14.1178 109.734C10.5884 109.413 7.05891 109.092 0.64171 111.338Z" fill="currentColor"/></g></svg>