<svg xmlns="http://www.w3.org/2000/svg" viewBox="0 0 246 202" fill="none"><path d="M193.322 123.278C187.593 120.055 181.453 120.901 178.85 122.05C177.54 137.521 169.871 148.179 167.895 150.682C168.924 155.301 182.03 160.312 190.555 154.635C200.965 168.211 218.279 159.355 216.19 146.419C214.1 133.484 201.26 134.587 199.646 136.19C199.646 133.504 199.052 126.501 193.322 123.278Z" fill="#400090"/><path d="M118.302 73.5472C113.287 74.7412 105.599 79.1525 102.382 81.2089L107.058 90.0648L112.631 89.4678L112.73 95.3385L120.69 96.1346L119.198 116.234L109.844 119.319L112.631 140.016L113.228 141.508L124.372 146.185L125.666 155.439L123.576 158.225L122.78 163.399L107.854 152.155L107.456 143.499L112.232 141.011L102.382 139.916L91.8341 120.215L86.3614 117.727C86.0629 117.694 84.9485 117.707 82.8788 118.025C82.5803 129.17 86.66 138.921 89.3466 144.593C112.133 177.927 141.885 168.176 156.711 160.116C171.537 152.056 176.612 133.946 177.706 126.583C176.114 134.543 166.495 143.034 161.885 146.285L159.795 136.434L146.163 128.871L146.462 125.09L153.129 123.399L142.084 121.508C141.951 117.528 141.646 107.995 141.487 101.707C153.427 96.0351 157.308 89.5673 160.591 82.005C140.989 68.1739 124.571 72.0546 118.302 73.5472Z" fill="#6308C0"/><mask id="mask0" mask-type="alpha" maskUnits="userSpaceOnUse" x="82" y="71" width="96" height="97"><path d="M118.302 73.5462C113.287 74.7402 105.599 79.1515 102.382 81.2079L107.058 90.0638L112.631 89.4668L112.73 95.3376L120.69 96.1336L119.198 116.233L109.844 119.318L112.631 140.015L113.228 141.507L124.372 146.184L125.666 155.438L123.576 158.224L122.78 163.398L107.854 152.154L107.456 143.498L112.232 141.01L102.382 139.915L91.8341 120.214L86.3614 117.726C86.0629 117.693 84.9485 117.706 82.8788 118.024C82.5803 129.169 86.66 138.92 89.3466 144.592C112.133 177.926 141.885 168.175 156.711 160.115C171.537 152.055 176.612 133.945 177.706 126.582C176.114 134.542 166.495 143.033 161.885 146.284L159.795 136.433L146.163 128.87L146.462 125.089L153.129 123.398L142.084 121.507C141.951 117.527 141.646 107.994 141.487 101.706C153.427 96.0341 157.308 89.5663 160.591 82.004C140.989 68.1729 124.571 72.0536 118.302 73.5462Z" fill="#6308C0"/></mask><g mask="url(#mask0)"><path d="M128.45 92.9219C129.157 95.1322 129.893 97.3891 130.601 99.6519C131.222 101.638 131.851 103.626 132.405 105.631C132.697 106.688 132.832 107.789 133.053 108.867C133.416 110.626 133.791 112.38 134.156 114.136C134.268 114.675 134.372 115.217 134.456 115.76C134.91 118.708 133.768 121.06 131.683 123.05C131.139 123.569 130.562 124.056 129.988 124.542C129.064 125.327 127.975 125.756 126.8 126.015C126.294 126.126 125.775 126.248 125.313 126.469C124.193 127.013 122.999 127.2 121.782 127.293C121.612 127.304 121.428 127.31 121.265 127.265C120.628 127.094 119.986 126.937 119.376 126.699C119.106 126.593 118.902 126.312 118.676 126.107C118.529 125.974 118.41 125.809 118.249 125.698C117.835 125.418 117.611 125.096 117.438 124.577C117.262 124.054 116.958 123.566 116.936 122.982C116.929 122.781 116.881 122.571 116.92 122.38C117.402 119.944 117.456 117.454 117.815 115.003C117.986 113.835 118.072 112.656 118.443 111.523C118.555 111.173 118.556 110.784 118.581 110.411C118.602 110.111 118.505 109.886 118.229 109.681C117.514 109.151 116.822 108.61 116.321 107.824C115.977 107.286 115.402 106.889 114.919 106.443C114.845 106.378 114.702 106.368 114.591 106.367C114.207 106.369 114.075 106.143 113.925 105.818C113.61 105.148 113.303 104.442 112.401 104.319C111.946 104.259 111.552 103.673 111.589 103.128C111.614 102.767 111.71 102.386 111.881 102.069C112.349 101.209 112.863 100.38 113.652 99.7531C114.696 98.9264 115.705 98.0563 116.758 97.239C117.097 96.9768 117.504 96.7854 117.908 96.6313C118.873 96.2656 119.576 95.5963 120.172 94.7921C120.584 94.2323 120.974 93.6593 121.378 93.0926C122.139 92.0251 123.096 91.295 124.476 91.2864C124.62 91.2855 124.78 91.2515 124.904 91.3003C125.71 91.6203 126.514 91.9458 127.308 92.2935C127.659 92.4582 127.995 92.672 128.45 92.9219Z" fill="#6E09C3"/><path d="M192.373 157.013C192.573 158.777 192.431 160.475 191.543 162.067C191.382 162.356 191.31 162.722 191.294 163.058C191.177 165.368 189.625 167.367 187.447 168.111C184.817 169.012 182.208 169.974 179.592 170.916C179.402 170.985 179.208 171.065 179.048 171.183C178.571 171.527 178.153 171.764 177.612 171.214C177.404 171.001 176.954 171.035 176.626 170.928C175.884 170.684 175.137 170.444 174.411 170.16C174.091 170.036 173.727 169.876 173.529 169.617C172.749 168.608 171.544 168.253 170.551 167.573C169.93 167.148 169.297 166.729 168.735 166.234C168.479 166.008 168.257 165.613 168.233 165.282C168.143 164.018 168.102 162.746 168.118 161.48C168.14 159.861 168.228 158.24 168.3 156.621C168.367 155.134 168.965 153.825 169.717 152.574C170.011 152.083 170.187 151.503 170.755 151.22C170.885 151.155 170.998 151.034 171.129 151.009C171.964 150.847 172.532 150.264 173.179 149.788C173.728 149.383 174.362 149.287 175.061 149.425C176.075 149.626 177.104 149.8 178.133 149.876C178.895 149.933 179.609 149.633 180.193 149.117C180.872 148.513 181.302 148.467 182.112 148.941C182.307 149.055 182.511 149.174 182.726 149.239C183.775 149.557 184.828 149.872 185.884 150.166C187.038 150.486 188.076 151.034 189.048 151.719C189.26 151.868 189.482 152.005 189.703 152.14C191.12 153.005 191.938 154.278 192.241 155.89C192.31 156.261 192.33 156.64 192.373 157.013Z" fill="#6E09C3"/><path d="M182.165 68.4397C182.399 70.1998 182.27 71.8991 181.375 73.4892C181.213 73.7785 181.142 74.1441 181.125 74.4797C181.007 76.8032 179.401 78.8324 177.201 79.5737C174.593 80.4513 172.013 81.4176 169.422 82.3485C169.313 82.3872 169.189 82.4119 169.099 82.48C168.519 82.9093 168.026 83.1157 167.275 82.6133C166.658 82.1979 165.79 82.1636 165.052 81.9094C164.172 81.6084 163.336 81.2366 162.758 80.4253C162.557 80.1435 162.136 80.0183 161.821 79.8154C160.753 79.1234 159.665 78.4573 158.636 77.7135C158.346 77.5051 158.09 77.0667 158.063 76.7151C157.962 75.452 157.925 74.1819 157.945 72.9155C157.974 71.2382 158.058 69.5599 158.161 67.8847C158.232 66.715 158.561 65.6103 159.217 64.6179C159.345 64.4245 159.452 64.215 159.539 64.0028C159.957 62.9877 160.696 62.3747 161.769 62.1279C161.974 62.0807 162.162 61.9041 162.327 61.7538C162.78 61.3391 163.246 60.9492 163.88 60.8634C164.157 60.8262 164.447 60.8061 164.723 60.8427C165.778 60.987 166.824 61.1928 167.883 61.3077C168.697 61.3981 169.418 61.0631 170.022 60.5392C170.724 59.9304 171.11 59.8755 171.938 60.3586C172.133 60.4729 172.33 60.6027 172.545 60.6673C173.594 60.9858 174.665 61.2465 175.699 61.6034C176.511 61.8833 177.307 62.2307 178.072 62.6264C178.739 62.9703 179.398 63.3598 179.971 63.8353C181.139 64.8049 181.962 66.0059 182.105 67.5715C182.133 67.86 182.145 68.1503 182.165 68.4397Z" fill="#6E09C3"/><path d="M103.515 167.234C103.697 168.955 103.637 170.639 102.753 172.209C102.578 172.521 102.503 172.918 102.476 173.282C102.298 175.706 100.814 177.559 98.506 178.344C95.8989 179.232 93.3152 180.186 90.7281 181.132C89.7873 181.476 89.3331 181.56 88.4276 181.293C87.5661 181.043 86.7075 180.771 85.8634 180.466C85.2037 180.229 84.637 179.86 84.1763 179.29C83.8999 178.949 83.4258 178.767 83.041 178.514C82.0008 177.832 80.9492 177.164 79.9248 176.459C79.5873 176.227 79.427 175.865 79.3917 175.42C79.206 173.044 79.2871 170.675 79.4523 168.304C79.5196 167.353 79.5815 166.4 79.6998 165.456C79.8271 164.453 80.4769 163.664 80.8804 162.771C81.3324 161.774 82.0314 161.136 83.1202 160.911C83.3236 160.87 83.5068 160.675 83.6711 160.522C84.4997 159.752 85.3732 159.349 86.5724 159.719C87.4409 159.984 88.3919 160.027 89.3117 160.074C90.0803 160.112 90.7902 159.823 91.3716 159.31C92.0222 158.733 92.4626 158.667 93.2278 159.089C93.4273 159.197 93.6112 159.352 93.8242 159.417C94.9889 159.761 96.1683 160.049 97.3207 160.424C97.9748 160.635 98.6075 160.936 99.21 161.271C99.9674 161.694 100.749 162.117 101.4 162.675C102.525 163.637 103.316 164.836 103.461 166.368C103.493 166.653 103.498 166.944 103.515 167.234Z" fill="#6E09C3"/><path d="M79.4131 93.1745C78.6299 92.9176 77.9521 92.7063 77.2797 92.4734C76.6488 92.2568 76.0175 92.0376 75.4029 91.7797C75.0844 91.6454 74.7188 91.4903 74.5233 91.2342C73.8621 90.3641 72.8604 90.0166 71.9999 89.4532C71.2477 88.9614 70.5163 88.4436 69.7891 87.9174C69.4501 87.6725 69.2532 87.3351 69.2211 86.8947C69.0513 84.6122 69.1107 82.3296 69.2493 80.0485C69.2871 79.4134 69.285 78.7751 69.3201 78.1404C69.3973 76.7467 69.9992 75.5397 70.6262 74.3219C71.1499 73.3053 71.8167 72.5717 72.9705 72.3158C73.1941 72.2664 73.3771 72.0247 73.5746 71.8627C74.3894 71.2016 75.2114 70.7866 76.3499 71.1315C77.2456 71.4045 78.2235 71.4525 79.1691 71.5174C79.9128 71.5686 80.5926 71.2462 81.1559 70.7821C81.9741 70.1047 82.2327 70.0619 83.1944 70.6347C83.3642 70.7361 83.5533 70.8221 83.744 70.8765C84.9099 71.2077 86.0912 71.4899 87.2391 71.8706C87.921 72.0945 88.5688 72.4353 89.1994 72.786C89.8806 73.165 90.5688 73.559 91.1704 74.0471C92.223 74.9064 93.0433 75.9921 93.2191 77.3621C93.3778 78.5842 93.3369 79.8345 93.3526 81.0731C93.3635 81.9022 93.088 82.6697 92.6905 83.3854C92.4304 83.8515 92.3144 84.3326 92.2786 84.8702C92.1346 87.1046 90.4884 89.0622 88.3569 89.7773C85.7487 90.6549 83.1682 91.6134 80.5836 92.5592C80.1565 92.7186 79.7657 92.9869 79.4131 93.1745Z" fill="#6E09C3"/><path d="M120.949 131.32C121.373 131.363 121.95 131.384 122.508 131.491C123.532 131.688 124.567 131.866 125.56 132.181C126.979 132.63 128.164 133.5 129.274 134.485C130.089 135.208 130.747 136.095 131.67 136.719C132.022 136.96 132.268 137.434 132.435 137.853C132.775 138.705 133.002 139.601 133.327 140.46C133.592 141.155 133.983 141.807 134.219 142.51C134.436 143.161 134.531 143.851 134.656 144.531C134.692 144.724 134.703 144.959 134.625 145.131C134.179 146.107 134.261 147.17 134.08 148.186C134.016 148.546 133.895 148.941 133.677 149.223C133.063 150.022 132.385 150.772 131.726 151.534C131.557 151.729 131.366 151.906 131.173 152.084C130.878 152.357 130.606 152.674 130.268 152.879C128.676 153.839 126.975 154.61 125.209 155.157C123.4 155.717 121.547 155.761 119.809 154.786C119.584 154.66 119.363 154.499 119.2 154.302C117.93 152.766 116.576 151.302 115.708 149.457C115.245 148.473 114.477 147.633 113.935 146.678C113.133 145.273 112.39 143.831 111.665 142.382C111.374 141.798 111.479 141.426 111.988 141.018C112.459 140.641 112.726 140.166 112.964 139.626C113.219 139.048 113.582 138.515 113.933 137.983C114.473 137.162 115.068 136.376 115.589 135.541C116.575 133.961 117.836 132.663 119.471 131.76C119.858 131.545 120.34 131.495 120.949 131.32Z" fill="#6E09C3"/><path d="M163.495 134.342C163.736 134.357 163.962 134.37 164.254 134.387C164.371 135.548 164.289 136.556 163.361 137.401C161.589 139.018 159.599 140.342 157.623 141.681C156.501 142.44 155.306 143.1 154.109 143.74C153.747 143.934 153.274 143.967 152.847 143.987C150.616 144.091 148.384 144.187 146.153 144.236C145.619 144.247 145.048 144.142 144.556 143.941C144.222 143.806 143.973 143.427 143.725 143.127C143.435 142.779 143.237 142.339 142.907 142.038C141.962 141.18 141.056 140.306 140.322 139.242C139.974 138.738 139.392 138.39 138.903 137.988C138.393 137.569 137.812 137.231 137.862 136.408C137.875 136.178 137.6 135.912 137.419 135.694C137.254 135.495 137.046 135.332 136.845 135.166C135.564 134.109 135.947 132.008 136.948 131.178C137.838 130.44 138.692 129.661 139.561 128.897C139.755 128.725 139.942 128.543 140.124 128.359C140.533 127.947 140.959 127.596 141.543 127.405C142.079 127.231 142.558 126.879 143.064 126.61C144.058 126.084 145.052 125.557 146.052 125.043C146.799 124.66 147.556 124.3 148.303 123.92C148.768 123.682 149.24 123.683 149.726 123.83C150.225 123.98 150.746 124.083 151.213 124.3C151.475 124.42 151.649 124.723 151.903 124.986C153.248 125.199 154.612 125.537 155.592 126.701C155.629 126.744 155.68 126.781 155.733 126.801C157.413 127.504 158.56 128.933 160.015 129.946C160.533 130.307 160.857 130.943 161.278 131.444C161.891 132.169 162.526 132.877 163.129 133.612C163.288 133.801 163.36 134.061 163.495 134.342Z" fill="#6E09C3"/><path d="M143.294 87.5403C143.874 87.5894 144.297 87.554 144.664 87.6747C145.22 87.8579 145.679 87.7027 146.138 87.4478C146.901 87.0238 147.119 87.0408 147.755 87.5143C148.833 88.3182 149.658 89.3482 150.462 90.4069C151.123 91.2796 151.802 92.1425 152.524 92.9636C153.108 93.627 153.774 94.2181 154.395 94.851C154.962 95.4298 154.866 96.1478 154.672 96.8059C154.371 97.8286 153.991 98.8314 153.591 99.8234C153.388 100.328 153.28 100.795 153.421 101.333C153.594 101.988 153.57 102.653 153.323 103.297C152.98 104.187 152.664 105.091 152.282 105.965C152.111 106.355 151.865 106.757 151.543 107.028C150.687 107.749 149.786 108.414 148.875 109.063C148.692 109.194 148.375 109.21 148.136 109.171C147.624 109.088 147.113 108.96 146.619 108.804C144.114 108.012 141.52 107.734 138.93 107.411C137.812 107.272 136.708 107.02 135.606 106.784C135.022 106.659 134.716 106.266 134.563 105.661C134.38 104.941 134.099 104.237 133.774 103.568C132.692 101.329 131.959 99.0038 131.755 96.515C131.639 95.0909 131.958 93.7377 132.435 92.432C132.666 91.8011 133.085 91.1827 133.568 90.712C134.23 90.0711 135.148 89.9893 136.021 90.1571C136.832 90.311 137.66 90.4026 138.404 90.8768C139.053 91.2886 139.785 90.9864 140.385 90.6651C141.123 90.2704 141.808 89.766 142.471 89.251C142.972 88.865 143.51 88.4511 143.294 87.5403Z" fill="#6E09C3"/><path d="M72.8596 103.829C73.8729 103.589 74.8417 103.328 75.8084 102.865C76.7476 102.416 77.9404 102.408 78.9361 102.932C79.7774 103.374 80.5118 103.986 80.9978 104.868C81.4839 105.751 82.0331 106.61 82.6271 107.422C82.9271 107.832 83.365 108.157 83.789 108.453C84.5253 108.967 85.2956 109.434 86.059 109.908C87.6057 110.871 88.2511 112.476 87.5898 113.992C87.3311 114.584 86.8598 115.093 86.4475 115.611C86.164 115.964 85.7992 116.253 85.4985 116.595C85.0066 117.153 84.2996 117.353 83.6526 117.456C82.7314 117.604 81.9945 118.117 81.1635 118.43C80.3302 118.747 79.5853 119.281 78.7683 119.649C78.1668 119.917 77.5226 120.159 76.8778 120.236C76.4984 120.282 76.1616 120.355 75.8105 120.487C75.4874 120.611 75.1412 120.764 74.8105 120.752C73.8688 120.721 73.0416 121.044 72.2541 121.484C71.4496 121.937 70.6476 122.273 69.698 122.059C69.5114 122.017 69.2963 122.095 69.0965 122.099C68.8942 122.104 68.6348 122.163 68.502 122.062C67.727 121.486 66.6677 121.303 66.1488 120.364C66.029 120.147 65.8018 119.981 65.6058 119.812C64.8148 119.119 64.7265 118.212 64.9642 117.3C65.158 116.555 65.5115 115.847 65.8448 115.146C66.1273 114.554 66.2994 113.964 66.1873 113.309C66.113 112.868 66.1672 112.468 66.4298 112.07C66.6317 111.763 66.7548 111.389 66.8504 111.028C67.0915 110.144 67.7222 109.417 67.8094 108.456C67.8487 108.018 68.0592 107.67 67.7488 107.194C67.3899 106.638 68.0526 105.708 68.531 105.33C68.8908 105.044 69.2395 104.707 69.6517 104.534C70.2577 104.28 70.912 104.126 71.5565 103.979C71.9864 103.89 72.4278 103.879 72.8596 103.829Z" fill="#6E09C3"/><path d="M156.91 97.5984C156.282 96.6982 156.499 95.7851 157.353 95.1272C158.409 94.3149 159.559 93.8176 160.908 93.7232C161.684 93.6682 162.453 93.4538 163.219 93.2896C163.468 93.2347 163.733 93.1518 163.938 93.0074C164.86 92.3444 165.908 92.3529 166.938 92.4947C168.24 92.6738 169.082 93.5651 169.766 94.6113C170.335 95.4815 170.858 96.3833 171.449 97.2378C171.673 97.5616 172.009 97.8252 172.336 98.0583C173.071 98.5784 173.797 99.1204 174.586 99.5449C175.428 99.9948 175.959 100.714 176.425 101.468C176.965 102.341 176.776 103.33 176.256 104.107C175.674 104.978 175.062 105.85 174.197 106.53C173.66 106.951 173.051 107.171 172.473 107.259C171.574 107.396 170.882 107.933 170.062 108.2C169.328 108.44 168.633 108.842 167.972 109.252C167.16 109.753 166.315 110.063 165.355 110.034C165.326 110.032 165.291 110.025 165.269 110.038C164.208 110.738 162.875 110.397 161.776 110.949C161.233 111.222 160.698 111.52 160.129 111.729C159.763 111.866 159.344 111.89 158.947 111.923C158.576 111.952 158.202 111.927 157.826 111.918C157.655 111.914 157.433 111.957 157.318 111.871C156.548 111.292 155.486 111.114 154.972 110.169C154.855 109.951 154.62 109.792 154.427 109.62C153.643 108.924 153.542 108.021 153.793 107.104C153.994 106.358 154.345 105.648 154.675 104.945C154.966 104.328 155.164 103.714 155.029 103.023C154.951 102.614 155.011 102.242 155.258 101.872C155.462 101.565 155.556 101.186 155.692 100.834C156.104 99.7355 156.515 98.6397 156.91 97.5984Z" fill="#6E09C3"/><path d="M128.435 172.604C127.48 172.524 126.542 172.553 125.664 172.338C124.875 172.145 124.254 171.554 123.9 170.791C123.056 168.975 122.451 167.073 122.059 165.111C121.966 164.646 122.047 164.132 122.123 163.65C122.272 162.718 122.22 161.807 121.997 160.895C121.914 160.56 121.869 160.213 121.837 159.867C121.798 159.438 121.936 159.102 122.327 158.833C123.157 158.262 123.959 157.653 124.759 157.041C125.49 156.481 126.328 156.159 127.205 155.948C128.503 155.638 129.6 154.908 130.731 154.273C131.231 153.993 131.573 153.41 131.953 152.937C132.857 151.814 133.915 150.902 135.235 150.28C136.09 149.877 136.87 150.2 137.649 150.441C137.791 150.486 137.878 150.875 137.9 151.112C138.006 152.264 138.067 153.418 138.181 154.569C138.218 154.936 138.263 155.377 138.482 155.633C139.106 156.36 139.029 157.273 139.273 158.096C139.525 158.932 139.674 159.769 139.592 160.662C139.476 161.926 139.469 163.198 139.391 164.466C139.375 164.718 139.261 164.967 139.179 165.211C138.948 165.889 138.754 166.584 138.459 167.232C138.301 167.576 138.014 167.925 137.692 168.122C137.081 168.494 136.406 168.769 135.75 169.062C135.188 169.314 134.701 169.64 134.309 170.129C133.966 170.56 133.433 170.648 132.922 170.759C132.647 170.817 132.382 170.923 132.114 171.017C131.842 171.111 131.572 171.3 131.303 171.3C130.546 171.3 129.996 171.712 129.412 172.09C129.105 172.29 128.768 172.431 128.435 172.604Z" fill="#6E09C3"/><path d="M111.857 76.7499C111.879 76.2744 111.857 75.6961 111.945 75.1341C112.099 74.1731 112.067 73.2334 111.82 72.2973C111.754 72.0473 111.703 71.7877 111.677 71.5307C111.619 70.9854 111.713 70.5384 112.248 70.1932C113.091 69.647 113.839 68.9489 114.695 68.4222C115.377 68.0023 116.129 67.6452 116.899 67.4386C118.243 67.0767 119.405 66.3625 120.586 65.6961C121.085 65.4128 121.413 64.8207 121.796 64.351C122.673 63.2885 123.684 62.4129 124.923 61.7662C125.81 61.3017 126.607 61.6096 127.424 61.8364C127.576 61.8794 127.708 62.2479 127.729 62.4767C127.841 63.657 127.919 64.8411 128.004 66.0217C128.045 66.5846 128.196 67.0955 128.622 67.5012C128.714 67.5905 128.795 67.7231 128.82 67.8464C128.915 68.3531 128.923 68.8856 129.079 69.3723C129.579 70.9047 129.504 72.4481 129.298 74.009C129.247 74.4091 129.165 74.8257 129.215 75.2168C129.307 75.9499 129.066 76.5768 128.773 77.2123C128.593 77.6008 128.435 78.0131 128.354 78.4323C128.245 78.9941 127.963 79.3839 127.455 79.6209C126.777 79.9378 126.076 80.2128 125.427 80.5763C124.987 80.824 124.613 81.1954 124.209 81.5098C124.028 81.6515 123.867 81.8592 123.661 81.9275C122.822 82.2157 121.983 82.5459 121.114 82.693C120.512 82.7963 119.943 82.9614 119.536 83.3393C118.862 83.9607 118.054 84.0429 117.274 83.9722C116.467 83.8992 115.599 84.0042 114.861 83.4555C114.363 83.0844 113.957 82.6686 113.687 82.1083C112.872 80.4306 112.442 78.63 111.857 76.7499Z" fill="#6E09C3"/><path d="M177.486 137.964C175.909 138.182 174.334 138.437 172.75 138.603C171.688 138.714 170.6 138.813 169.543 138.713C168.579 138.624 167.627 138.279 166.837 137.66C166.452 137.36 166.212 136.988 166.078 136.465C165.881 135.694 165.499 134.963 165.13 134.248C164.842 133.69 164.488 133.155 164.104 132.658C163.739 132.185 163.322 131.741 162.88 131.335C162.37 130.865 162.312 130.612 162.654 129.989C162.833 129.664 162.959 129.313 163.118 128.976C163.228 128.743 163.32 128.488 163.48 128.296C164.277 127.343 165.106 126.417 165.897 125.457C166.103 125.207 166.189 124.861 166.36 124.576C166.74 123.938 167.116 123.291 167.539 122.682C167.84 122.251 168.302 122.077 168.841 122.157C169.168 122.206 169.402 122.174 169.646 121.849C170.019 121.354 170.627 121.416 171.177 121.529C173.188 121.944 175.193 122.374 177.201 122.805C177.617 122.894 178.025 123.01 178.435 123.118C179.481 123.392 179.968 124.39 180.803 124.943C180.974 125.058 181.087 125.397 181.074 125.627C181.042 126.288 180.922 126.945 180.856 127.605C180.828 127.889 180.806 128.181 180.838 128.461C180.923 129.174 181.123 129.884 181.125 130.596C181.129 132.414 181.196 134.24 180.665 136.02C180.504 136.564 180.372 137 179.661 136.958C179.459 136.947 179.208 137.168 179.038 137.337C178.606 137.76 178.108 138.011 177.486 137.964Z" fill="#6E09C3"/><path d="M88.899 148.222C87.1772 148.42 85.7419 148.611 84.2997 148.743C83.1182 148.849 81.9244 148.986 80.7484 148.911C79.7823 148.851 78.836 148.482 78.0389 147.874C77.6517 147.577 77.4165 147.205 77.2775 146.682C77.0649 145.886 76.6597 145.134 76.277 144.395C76.0294 143.913 75.6551 143.499 75.3797 143.029C75.0395 142.453 74.6755 141.922 74.1032 141.528C73.4938 141.109 73.4842 140.818 73.8653 140.144C74.0317 139.849 74.1271 139.509 74.2906 139.212C74.5265 138.788 74.7549 138.344 75.063 137.975C75.746 137.153 76.5072 136.393 77.1731 135.56C77.4844 135.172 77.6367 134.663 77.8891 134.221C78.159 133.749 78.4286 133.274 78.7532 132.842C79.0453 132.449 79.4819 132.28 79.982 132.344C80.3403 132.389 80.5938 132.371 80.8664 132.014C81.2371 131.524 81.855 131.627 82.404 131.727C83.882 131.998 85.3741 132.211 86.8287 132.577C87.8816 132.843 88.9946 132.92 89.9791 133.461C90.3362 133.657 90.6661 133.821 90.9133 134.184C91.1321 134.506 91.5015 134.74 91.8289 134.975C92.1738 135.225 92.3105 135.543 92.265 135.95C92.197 136.552 92.1184 137.152 92.0586 137.755C92.0306 138.04 91.968 138.344 92.0354 138.61C92.5761 140.702 92.2984 142.805 92.1366 144.907C92.102 145.363 91.9369 145.808 91.8387 146.261C91.7245 146.781 91.5382 147.178 90.8726 147.142C90.6659 147.131 90.4072 147.334 90.2398 147.506C89.7843 147.968 89.2572 148.221 88.899 148.222Z" fill="#6E09C3"/><path d="M148.623 62.5416C149.555 62.3531 150.26 62.3904 150.985 62.5726C151.419 62.6804 151.908 62.6716 152.357 62.6095C153.205 62.4911 153.953 62.6681 154.673 63.1136C155.087 63.3682 155.563 63.5238 155.991 63.7611C156.169 63.859 156.373 64.03 156.43 64.2074C156.713 65.1156 156.935 66.0362 156.849 67.0079C156.789 67.6981 156.8 68.3958 156.801 69.092C156.801 69.9383 156.727 70.7692 156.383 71.5577C156.037 72.3516 156 73.181 156.074 74.0292C156.12 74.5442 156.181 75.0733 155.731 75.4929C155.643 75.574 155.646 75.7602 155.619 75.8999C155.262 77.7462 154.288 79.1326 152.597 80.0126C151.672 80.4946 150.771 81.0211 149.846 81.5057C149.513 81.6806 149.168 81.8201 148.78 81.5388C148.665 81.4547 148.405 81.5319 148.224 81.5816C147.664 81.7326 147.117 81.9216 146.556 82.0622C146.212 82.1489 145.974 82.0239 145.784 81.6778C145.128 80.4813 144.632 79.2374 144.259 77.919C143.962 76.8704 143.392 75.9004 143.021 74.8683C142.599 73.7 142.277 72.4967 141.883 71.3173C141.758 70.9401 141.542 70.5944 141.371 70.2329C141.138 69.7394 140.872 69.2575 140.689 68.745C140.43 68.0258 140.461 67.3363 141.021 66.7203C141.404 66.2952 141.714 65.805 142.08 65.3636C142.205 65.2126 142.381 65.0741 142.563 65.0059C143.53 64.6374 144.499 64.2685 145.486 63.9529C145.811 63.8499 146.063 63.7474 146.227 63.4316C146.443 63.0153 146.821 62.8246 147.286 62.7634C147.804 62.6881 148.318 62.5924 148.623 62.5416Z" fill="#6E09C3"/><path d="M159.107 150.958C159.683 150.992 160.28 150.942 160.826 151.084C161.438 151.242 162.02 151.286 162.628 151.166C163.383 151.016 164.051 151.26 164.707 151.605C165.19 151.86 165.698 152.065 166.174 152.328C166.351 152.426 166.543 152.606 166.598 152.789C166.857 153.642 167.09 154.498 167.024 155.415C166.962 156.282 167.031 157.154 166.962 158.019C166.908 158.674 166.795 159.344 166.589 159.964C166.309 160.806 166.151 161.636 166.24 162.522C166.295 163.067 166.361 163.625 165.896 164.072C165.808 164.156 165.817 164.341 165.788 164.481C165.425 166.326 164.44 167.708 162.761 168.595C161.864 169.068 160.984 169.577 160.084 170.05C159.721 170.242 159.349 170.371 158.933 170.098C158.813 170.02 158.562 170.107 158.384 170.156C157.88 170.296 157.39 170.478 156.885 170.602C156.303 170.745 156.233 170.64 155.933 170.156C155.208 168.986 154.795 167.707 154.402 166.398C154.107 165.407 153.567 164.489 153.217 163.512C152.787 162.316 152.454 161.085 152.052 159.878C151.927 159.501 151.718 159.149 151.534 158.791C151.402 158.536 151.207 158.306 151.113 158.038C150.844 157.281 150.432 156.511 150.908 155.705C151.528 154.656 152.166 153.618 153.455 153.239C153.922 153.101 154.362 152.869 154.819 152.696C155.033 152.614 155.26 152.522 155.485 152.509C155.936 152.489 156.212 152.3 156.469 151.918C156.64 151.664 157 151.473 157.312 151.388C157.894 151.224 158.505 151.156 159.104 151.048C159.106 151.019 159.105 150.987 159.107 150.958Z" fill="#6E09C3"/><path d="M184.486 122.937C183.957 122.903 183.608 122.909 183.269 122.85C182.358 122.695 181.443 122.555 180.55 122.324C179.857 122.146 179.188 121.868 178.528 121.587C176.836 120.872 175.038 120.566 173.248 120.238C172.564 120.114 171.864 120.074 171.187 119.92C169.967 119.642 169.07 118.875 168.409 117.85C168.085 117.346 167.909 116.793 167.928 116.137C167.95 115.367 167.799 114.604 167.867 113.813C167.911 113.303 167.634 112.754 167.452 112.242C167.201 111.545 167.242 110.947 167.837 110.437C168.102 110.212 168.311 109.923 168.578 109.705C168.774 109.546 169.026 109.362 169.258 109.357C170.519 109.327 171.722 108.743 173.023 109.008C173.633 109.133 174.273 108.952 174.908 109.178C175.224 109.292 175.651 109.153 176.013 109.072C176.719 108.91 177.411 108.689 178.117 108.531C178.474 108.451 178.853 108.423 179.219 108.439C179.849 108.466 180.479 108.539 181.109 108.603C181.25 108.618 181.387 108.666 181.524 108.71C182.042 108.882 182.558 109.065 183.078 109.228C183.761 109.444 184.378 109.718 184.539 110.527C184.596 110.812 184.814 110.968 185.117 110.949C185.374 110.936 185.637 110.927 185.886 110.869C186.733 110.68 187.306 110.985 187.478 111.842C187.572 112.313 187.53 112.817 187.485 113.303C187.445 113.775 187.457 114.178 187.761 114.606C188.144 115.143 188.369 115.766 188.381 116.469C188.395 117.093 188.553 117.713 188.625 118.338C188.647 118.535 188.676 118.787 188.577 118.93C187.792 120.079 187.463 121.575 186.088 122.272C185.531 122.559 184.929 122.757 184.486 122.937Z" fill="#6E09C3"/><path d="M95.4734 133.123C95.1282 133.1 94.7784 133.106 94.4396 133.048C93.5284 132.892 92.6092 132.758 91.72 132.519C90.9179 132.304 90.16 131.923 89.3625 131.678C88.2619 131.342 87.1524 131.02 86.0278 130.773C84.7846 130.503 83.5144 130.342 82.2617 130.104C80.6079 129.792 79.1992 128.081 79.1068 126.404C79.0619 125.6 78.9584 124.813 79.0487 123.993C79.102 123.517 78.8204 122.992 78.641 122.508C78.3615 121.749 78.4679 121.138 79.0719 120.545C79.6899 119.938 80.2525 119.398 81.2331 119.493C81.6941 119.537 82.183 119.205 82.6574 119.206C83.8037 119.206 84.9585 119.073 86.0966 119.392C86.4042 119.477 86.786 119.36 87.1197 119.282C87.8257 119.12 88.518 118.906 89.2246 118.749C89.5817 118.668 89.9608 118.62 90.326 118.633C90.9852 118.66 91.6452 118.739 92.3011 118.806C92.4425 118.821 92.5803 118.873 92.7149 118.921C93.2055 119.085 93.6901 119.266 94.1841 119.415C94.8995 119.632 95.5502 119.883 95.7257 120.746C95.7574 120.908 96.0313 121.089 96.2211 121.136C96.4624 121.195 96.7398 121.155 96.9891 121.1C97.9791 120.887 98.8178 121.397 98.6968 122.386C98.5384 123.692 98.9546 124.769 99.4016 125.932C99.7321 126.79 99.7039 127.784 99.8221 128.722C99.8405 128.859 99.824 129.037 99.7492 129.143C98.9726 130.228 98.6836 131.659 97.3999 132.39C96.8043 132.734 96.1916 133.043 95.4734 133.123Z" fill="#6E09C3"/><path d="M101.38 158.538C101.382 158.123 101.361 157.313 101.4 156.507C101.479 154.95 102.416 154.02 103.987 153.887C104.159 153.873 104.356 153.887 104.497 153.808C105.856 153.044 107.357 152.691 108.841 152.279C109.002 152.234 109.153 152.13 109.289 152.028C110.051 151.457 110.633 151.408 111.437 151.873C111.587 151.961 111.714 152.125 111.871 152.157C113.441 152.473 113.965 153.827 114.682 154.974C114.924 155.359 115.151 155.622 115.647 155.465C115.97 155.365 116.206 155.538 116.395 155.782C116.553 155.987 116.721 156.188 116.859 156.406C117.454 157.363 118.071 158.309 118.617 159.295C119.112 160.192 119.566 161.117 119.965 162.06C120.171 162.554 120.299 163.109 120.323 163.642C120.356 164.348 119.987 164.892 119.379 165.288C118.425 165.91 117.425 166.409 116.343 166.782C114.645 167.372 112.984 168.07 111.289 168.669C110.193 169.057 109.063 169.266 107.874 169.169C106.876 169.086 106.403 168.481 106.059 167.664C105.488 166.313 104.844 164.997 104.039 163.772C103.548 163.027 102.948 162.35 102.383 161.655C101.865 161.018 101.529 160.108 101.38 158.538Z" fill="#6E09C3"/><path d="M99.3324 80.5873C98.8216 80.5908 98.2752 80.6062 97.7311 80.5951C96.7429 80.5719 96.2438 79.9433 95.9007 79.1129C95.342 77.758 94.688 76.4456 93.8856 75.2185C93.3809 74.4487 92.697 73.794 92.1945 73.0213C91.8238 72.4542 91.5171 71.8035 91.36 71.1462C91.0846 69.9874 91.1546 68.7837 91.2698 67.6063C91.386 66.3921 92.2574 65.5352 93.4594 65.3551C93.9411 65.2814 94.3623 65.1858 94.8199 64.9256C95.5569 64.5046 96.4387 64.3351 97.2652 64.0746C98.0181 63.8384 98.7996 63.7592 99.4623 63.1969C99.9498 62.7836 100.629 62.9841 101.197 63.2685C101.376 63.3583 101.523 63.5595 101.706 63.5937C103.28 63.9043 103.801 65.253 104.516 66.4061C104.753 66.7889 104.97 67.0319 105.483 66.9099C105.683 66.8633 106.004 66.9973 106.157 67.1558C106.456 67.4631 106.691 67.8356 106.923 68.2031C107.432 69.0093 107.958 69.8081 108.413 70.6442C108.928 71.5967 109.406 72.572 109.831 73.5664C110.03 74.0324 110.143 74.5633 110.162 75.0684C110.187 75.6962 109.929 76.275 109.365 76.6158C108.623 77.0662 107.882 77.5428 107.084 77.8683C105.231 78.6224 103.352 79.3111 101.47 79.9924C100.794 80.2329 100.083 80.3802 99.3324 80.5873Z" fill="#6E09C3"/><path d="M104.436 96.3283C103.429 96.7804 102.467 96.5492 101.508 96.2993C100.976 96.1607 100.456 95.9497 99.9171 95.8697C99.0057 95.7352 98.106 95.6335 97.2321 96.1937C96.7094 96.5296 96.0513 96.6735 95.4425 96.8564C94.793 97.0519 94.1758 96.8862 93.6275 96.5182C93.3163 96.3095 93.0434 96.0439 92.7454 95.8127C91.8274 95.093 91.4636 94.1966 91.8625 93.0576C91.8826 93.0027 91.9151 92.9412 91.9065 92.8896C91.7273 91.8801 92.2475 91.0399 92.5452 90.1438C92.6213 89.9116 92.6108 89.6369 92.5849 89.3876C92.4657 88.2582 92.6834 87.2162 93.2603 86.2276C93.665 85.5294 93.9702 84.7901 94.1079 83.9702C94.1994 83.4131 94.4202 82.8569 94.6865 82.3533C95.1691 81.4386 96.0358 81.2523 96.9846 81.3457C97.3577 81.3818 97.7323 81.4544 98.0923 81.5602C98.8664 81.784 99.6394 81.7689 100.41 81.5937C101.411 81.3657 102.421 81.2787 103.386 80.7789C104.157 80.3777 105.143 80.4274 106.031 80.7039C106.428 80.8266 106.769 81.0711 106.885 81.5046C107.102 82.3128 107.349 83.1147 107.496 83.9361C107.761 85.4168 107.603 86.8645 106.983 88.2575C106.784 88.7034 106.665 89.1874 106.519 89.6562C106.477 89.7925 106.433 89.9394 106.449 90.0768C106.581 91.2783 106.727 92.4783 106.87 93.6812C106.973 94.5313 106.937 95.3632 106.505 96.1249C106.063 96.9089 105.471 97.0269 104.709 96.5178C104.636 96.4631 104.565 96.4135 104.436 96.3283Z" fill="#6E09C3"/><path d="M103.955 135.636C105.532 135.576 106.74 135.495 107.949 135.49C109.769 135.481 110.611 137.242 110.366 138.616C110.21 139.485 110.168 140.31 110.284 141.185C110.472 142.614 110.233 144.021 109.72 145.36C109.215 146.679 108.949 148.013 109.123 149.43C109.151 149.653 109.039 149.921 108.918 150.127C107.93 151.785 105.777 151.99 104.384 151.396C103.472 151.007 102.511 150.828 101.541 150.855C100.328 150.89 99.2115 150.463 98.0461 150.274C97.9064 150.25 97.7717 150.179 97.6429 150.112C95.5572 149.046 94.3808 147.315 94.0008 145.038C93.866 144.231 94.3215 143.609 94.8218 143.031C95.1734 142.628 95.5164 142.218 95.8558 141.801C96.0199 141.601 96.1298 141.341 96.3218 141.177C96.8436 140.741 97.1347 140.224 97.3566 139.563C97.6262 138.767 98.1077 138.026 98.9635 137.607C99.6571 137.267 100.243 136.675 100.959 136.416C102.034 136.025 103.181 135.83 103.955 135.636Z" fill="#6E09C3"/><path d="M149.046 122.636C148.069 122.524 146.998 122.49 145.97 122.256C145.169 122.074 144.373 122.011 143.564 121.964C142.185 121.884 140.866 121.578 139.663 120.872C139.01 120.49 138.44 120.025 138.057 119.346C137.775 118.845 137.467 118.344 137.087 117.92C136.168 116.898 135.941 115.61 135.649 114.353C135.462 113.547 135.369 112.717 135.277 111.894C135.229 111.469 135.213 111.037 135.555 110.667C135.984 110.202 136.003 109.512 136.488 109.03C136.812 108.709 137.123 108.484 137.524 108.53C138.445 108.637 139.339 108.322 140.274 108.498C142.437 108.907 144.605 109.244 146.522 110.451C147.303 110.942 148.175 111.286 148.979 111.746C149.317 111.938 149.659 112.206 149.867 112.527C150.236 113.097 150.757 113.549 150.979 114.249C151.222 115.009 151.26 115.751 151.066 116.467C150.698 117.832 150.224 119.168 149.783 120.512C149.57 121.162 149.336 121.804 149.046 122.636Z" fill="#6E09C3"/><path d="M167.839 120.82C167.457 121.069 167.141 121.305 166.796 121.486C166.55 121.617 166.267 121.681 165.997 121.762C165.692 121.855 165.385 121.935 165.05 122.028C165.294 123.07 165.014 123.846 164.561 124.676C164.123 125.475 163.694 126.071 162.742 126.227C162.274 126.305 161.842 126.583 161.381 126.728C160.751 126.926 160.114 126.818 159.51 126.609C158.47 126.25 157.448 125.844 156.415 125.472C156.121 125.366 155.817 125.267 155.509 125.229C154.972 125.162 154.59 124.953 154.406 124.407C154.33 124.179 154.173 123.921 153.978 123.799C153.52 123.513 153.294 123.129 153.203 122.611C153.162 122.368 153.06 122.099 152.895 121.921C152.441 121.429 152.335 120.858 152.385 120.232C152.526 118.505 152.679 116.777 152.815 115.048C152.843 114.677 152.826 114.3 152.813 113.929C152.777 113.002 153.9 112.064 154.793 112.308C155.331 112.454 155.848 112.642 156.39 112.33C156.476 112.281 156.62 112.293 156.726 112.32C157.571 112.52 158.427 112.682 159.251 112.95C160.683 113.414 162.085 113.965 163.513 114.442C164.417 114.746 165.185 115.191 165.782 115.963C166.2 116.507 166.778 116.926 167.005 117.618C167.192 118.193 167.261 118.787 167.629 119.336C167.884 119.714 167.783 120.33 167.839 120.82Z" fill="#6E09C3"/><path d="M116.069 123.25C116.089 123.744 115.923 124.16 115.71 124.618C115.424 125.227 115.327 125.942 115.244 126.624C115.139 127.48 115.123 128.346 115.083 129.21C115.048 129.918 114.921 130.585 114.378 131.104C114.316 131.164 114.243 131.236 114.225 131.314C113.893 132.76 112.608 132.677 111.56 132.934C111.175 133.028 110.751 132.958 110.344 132.973C109.353 133.011 108.398 133.186 107.5 133.655C106.709 134.066 105.736 134.036 105.009 134.632C104.934 134.693 104.772 134.704 104.673 134.673C103.8 134.39 102.841 134.434 102.027 133.928C101.516 133.611 100.939 133.404 100.435 133.081C100.153 132.9 99.9296 132.603 99.7416 132.32C99.5408 132.017 99.5414 131.678 99.7366 131.335C99.9466 130.961 100.109 130.559 100.288 130.168C100.372 129.982 100.406 129.752 100.538 129.616C101.187 128.937 101.369 128.062 101.683 127.219C102.293 125.578 103.049 123.993 103.706 122.37C104.111 121.37 104.879 120.95 105.882 120.938C106.895 120.926 107.921 120.93 108.918 121.075C110.577 121.321 112.23 121.646 113.866 122.015C115.113 122.295 115.101 122.347 116.069 123.25Z" fill="#6E09C3"/><path d="M173.687 148.907C172.621 149.03 171.545 149.116 170.487 149.288C169.716 149.411 169.076 149.116 168.41 148.846C168.357 148.823 168.299 148.798 168.26 148.758C168.054 148.548 167.885 148.289 167.648 148.134C167.415 147.982 167.107 147.944 166.839 147.836C166.214 147.582 165.837 147.052 165.504 146.515C165.145 145.931 164.959 145.255 164.5 144.704C164.305 144.469 164.397 143.988 164.381 143.616C164.371 143.389 164.468 143.139 164.408 142.933C164.136 142.01 164.671 141.391 165.181 140.765C165.643 140.2 166.291 139.962 166.985 139.814C168.39 139.516 169.811 139.524 171.233 139.563C171.612 139.575 171.997 139.604 172.363 139.536C173.416 139.341 174.445 139.533 175.486 139.627C175.971 139.671 176.463 139.667 176.95 139.637C178.25 139.556 179.549 139.37 180.846 139.392C181.442 139.4 182.074 139.719 182.609 140.036C183.041 140.294 183.297 140.772 183.48 141.287C183.89 142.454 184.006 143.665 184.076 144.876C184.137 145.915 183.488 147.075 182.065 147.283C180.748 147.474 179.47 147.91 178.161 148.17C176.68 148.466 175.185 148.685 173.696 148.938C173.692 148.93 173.689 148.92 173.687 148.907Z" fill="#6E09C3"/><path d="M84.821 159.114C83.7832 159.233 82.7413 159.316 81.7115 159.481C80.9481 159.603 80.2999 159.328 79.632 159.066C79.5796 159.046 79.5032 159.023 79.4852 158.98C79.1585 158.292 78.4159 158.252 77.8549 157.932C77.1076 157.506 76.7193 156.809 76.3713 156.074C76.2496 155.817 76.1668 155.509 75.9716 155.324C75.5287 154.909 75.5516 154.397 75.5554 153.879C75.5574 153.621 75.6704 153.343 75.6042 153.111C75.3349 152.188 75.8697 151.567 76.3836 150.948C76.8467 150.39 77.4943 150.156 78.1917 150.01C79.5946 149.72 81.0127 149.723 82.4349 149.762C82.8102 149.771 83.1989 149.806 83.5623 149.735C84.6146 149.535 85.6422 149.741 86.68 149.829C87.1644 149.871 87.6567 149.867 88.1409 149.837C89.4387 149.757 90.7342 149.587 92.0308 149.588C92.5763 149.588 93.1673 149.846 93.6527 150.127C94.144 150.412 94.4648 150.888 94.6642 151.477C95.0567 152.646 95.2154 153.845 95.2677 155.058C95.3172 156.201 94.6186 157.277 93.277 157.481C91.935 157.682 90.628 158.119 89.2933 158.382C87.8143 158.676 86.3213 158.892 84.835 159.144C84.826 159.134 84.8248 159.124 84.821 159.114Z" fill="#6E09C3"/><path d="M148.982 84.702C149.328 84.5415 149.728 84.3983 150.08 84.1818C150.69 83.8043 151.305 83.421 151.85 82.959C152.508 82.4025 153.093 81.7573 153.717 81.16C154.185 80.7147 154.703 80.3583 155.381 80.3173C155.496 80.3093 155.636 80.3168 155.719 80.2548C156.831 79.4307 157.7 80.2507 158.557 80.7357C159.227 81.1134 159.773 81.7103 160.385 82.1998C160.585 82.3581 160.793 82.5182 161.024 82.6231C161.864 83.0075 162.712 83.3701 163.56 83.7352C163.693 83.7909 163.84 83.8528 163.976 83.8503C164.655 83.8381 165.03 84.2549 165.329 84.775C165.77 85.5442 166.27 86.291 166.606 87.1039C166.84 87.6736 166.9 88.3341 166.924 88.9594C166.946 89.514 166.644 89.7773 166.125 89.9368C165.824 90.0291 165.538 90.175 165.242 90.2799C164.811 90.4344 164.374 90.574 163.938 90.7187C163.664 90.8106 163.375 90.8674 163.118 90.9942C161.544 91.7713 159.984 92.5733 158.405 93.3433C157.886 93.5973 157.337 93.8022 156.782 93.9685C156.293 94.114 155.778 94.0627 155.371 93.7284C154.635 93.1244 153.862 92.5456 153.231 91.8429C151.937 90.4016 150.696 88.9121 149.703 87.234C149.268 86.4982 148.907 85.7645 148.982 84.702Z" fill="#6E09C3"/><path d="M159.14 173.442C159.439 173.084 159.816 172.907 160.256 172.722C160.905 172.451 161.483 171.974 162.033 171.514C162.651 170.999 163.226 170.429 163.784 169.847C164.302 169.309 164.873 168.91 165.644 168.861C165.731 168.856 165.833 168.855 165.9 168.811C167.055 168.044 167.927 168.846 168.818 169.369C169.337 169.672 169.804 170.086 170.233 170.515C170.744 171.027 171.371 171.273 172.03 171.504C172.543 171.685 173.024 171.966 173.521 172.19C173.73 172.284 173.949 172.406 174.169 172.418C174.79 172.452 175.174 172.791 175.459 173.297C175.909 174.094 176.426 174.86 176.783 175.697C177.013 176.235 177.071 176.873 177.092 177.469C177.114 178.079 176.844 178.315 176.259 178.503C175.959 178.598 175.676 178.749 175.387 178.874C175.122 178.991 174.863 179.192 174.591 179.212C173.742 179.276 173.089 179.745 172.364 180.109C170.664 180.956 168.916 181.706 167.172 182.461C166.584 182.715 165.958 182.676 165.445 182.246C164.736 181.655 163.992 181.089 163.381 180.405C162.09 178.963 160.846 177.474 159.86 175.792C159.24 174.726 159.225 174.735 159.14 173.442Z" fill="#6E09C3"/><path d="M128.413 90.185C128.149 90.4571 127.943 90.6568 127.751 90.8681C127.321 91.3458 126.786 91.4361 126.322 90.9718C125.322 89.975 124.081 89.2922 123.034 88.3614C122.558 87.9377 122.172 87.4696 122.129 86.7518C122.083 85.9819 121.774 85.237 122.049 84.4433C122.297 83.7342 122.648 83.1 123.295 82.7209C124.189 82.2004 125.085 81.6193 126.06 81.3023C128.125 80.6316 129.985 79.5929 131.811 78.461C132.942 77.7582 134.637 77.9945 135.563 78.9867C135.975 79.4282 136.339 79.9172 136.772 80.3379C137.057 80.6152 137.427 80.8067 137.761 81.0311C138.584 81.5909 138.706 83.0222 138.025 83.7679C137.328 84.5338 136.665 85.3247 135.803 85.9178C135.661 86.0155 135.55 86.1964 135.399 86.2322C134.866 86.3643 134.598 86.7892 134.3 87.1756C133.981 87.5854 133.699 88.025 133.395 88.4463C133.294 88.584 133.182 88.7309 133.043 88.8231C132.061 89.4746 131.065 90.1013 129.947 90.5082C129.399 90.7131 128.933 90.5301 128.413 90.185Z" fill="#6E09C3"/><path d="M138.559 178.815C138.355 179.012 138.142 179.202 137.95 179.411C137.494 179.915 136.921 179.999 136.449 179.512C135.507 178.535 134.303 177.901 133.298 177.015C132.77 176.55 132.337 176.058 132.294 175.272C132.254 174.533 131.961 173.818 132.215 173.05C132.525 172.121 133.052 171.409 133.968 171.012C133.996 171.001 134.024 170.992 134.049 170.976C135.248 170.132 136.669 169.787 137.983 169.206C139.302 168.623 140.562 167.89 141.802 167.146C143.111 166.362 144.737 166.499 145.766 167.589C146.159 168.009 146.508 168.474 146.92 168.873C147.207 169.15 147.565 169.354 147.897 169.578C148.711 170.129 148.912 171.606 148.225 172.3C147.54 172.991 147.011 173.84 146.138 174.342C145.844 174.513 145.555 174.706 145.296 174.928C144.991 175.189 144.7 175.469 144.448 175.782C144.123 176.187 143.85 176.631 143.546 177.055C143.462 177.172 143.367 177.291 143.252 177.37C142.256 178.054 141.245 178.733 140.077 179.072C139.654 179.194 139.144 179.019 138.675 178.978C138.64 178.927 138.6 178.871 138.559 178.815Z" fill="#6E09C3"/><path d="M139.7 151.572C139.023 151.208 139.046 150.606 139.202 149.947C139.529 148.551 139.816 147.146 140.173 145.757C140.284 145.324 140.515 144.9 140.776 144.531C141.007 144.203 141.353 143.937 141.809 144.011C142.491 144.122 143.2 144.185 143.847 144.407C145.326 144.918 146.798 145.461 148.228 146.093C148.983 146.427 149.669 146.937 150.337 147.433C150.928 147.873 150.941 148.518 150.716 149.169C150.168 150.756 149.758 152.369 149.773 154.063C149.78 154.879 149.528 155.602 149.028 156.232C148.614 156.752 148.188 157.269 147.726 157.743C147.089 158.394 146.207 158.508 145.411 158.116C144.877 157.854 144.339 157.601 143.795 157.361C143.138 157.074 142.474 156.8 141.808 156.533C141.573 156.436 141.327 156.315 141.081 156.306C140.491 156.284 140.204 155.921 139.99 155.454C139.821 155.087 139.65 154.718 139.532 154.332C139.451 154.068 139.418 153.775 139.444 153.501C139.496 152.872 139.603 152.245 139.7 151.572Z" fill="#6E09C3"/><path d="M107.718 113.916C107.649 113.595 107.561 113.372 107.561 113.146C107.56 112.518 107.487 111.861 107.64 111.263C108.001 109.844 108.228 108.441 107.882 106.988C107.841 106.82 107.926 106.618 107.974 106.436C108.023 106.247 108.127 106.069 108.155 105.88C108.308 104.874 109.545 104.375 110.384 104.959C111.733 105.9 113.11 106.806 114.464 107.741C114.819 107.987 115.145 108.28 115.473 108.566C116.451 109.418 116.873 110.473 116.855 111.787C116.822 113.935 116.623 116.06 116.212 118.165C116.069 118.896 115.924 119.656 115.301 120.175C115.116 120.327 114.881 120.488 114.657 120.511C114.17 120.562 113.676 120.545 113.183 120.523C112.259 120.484 111.331 120.439 110.409 120.366C109.688 120.309 108.964 120.245 108.255 120.109C107.498 119.962 107.251 119.604 107.311 118.821C107.407 117.586 107.545 116.353 107.653 115.122C107.691 114.689 107.699 114.26 107.718 113.916Z" fill="#6E09C3"/><path d="M177.236 93.4638C176.35 93.4999 175.496 93.5243 174.652 93.1745C174.353 93.0511 173.953 93.0787 173.618 93.1434C172.915 93.282 172.362 93.0564 171.914 92.5508C171.717 92.329 171.558 92.2552 171.251 92.3115C171.042 92.3486 170.75 92.214 170.572 92.0636C170.382 91.9041 170.258 91.6477 170.152 91.4128C169.528 90.0155 168.901 88.6185 168.314 87.2038C168.219 86.9729 168.21 86.5745 168.348 86.3984C169.045 85.509 169.608 84.4746 170.724 83.9997C170.829 83.9534 170.93 83.8472 171.033 83.8459C171.936 83.8394 172.554 83.2088 173.298 82.85C173.376 82.8122 173.484 82.7919 173.527 82.7292C173.963 82.0747 174.504 81.8338 175.247 82.2426C175.323 82.2864 175.475 82.2322 175.575 82.1865C175.828 82.0734 176.1 81.803 176.309 81.85C176.655 81.9259 177.01 82.1506 177.268 82.4047C177.791 82.9202 178.166 83.6314 178.758 84.018C179.536 84.5252 179.648 85.3401 180.001 86.0301C180.524 87.0475 180.965 88.1163 181.34 89.198C181.545 89.7946 181.803 90.4587 181.379 91.104C181.348 91.1496 181.326 91.2126 181.327 91.2676C181.339 92.3096 180.51 92.6202 179.773 92.8809C178.963 93.1684 178.085 93.2771 177.236 93.4638Z" fill="#6E09C3"/><path d="M82.7915 102.477C81.9974 102.584 81.6997 102.448 81.3764 101.72C80.9071 100.662 80.473 99.5901 80.024 98.5248C79.9555 98.3645 79.8948 98.2033 79.8338 98.0395C79.6857 97.6439 79.3439 97.1917 79.4379 96.863C79.575 96.3821 80.0227 95.9891 80.3428 95.5634C80.7586 95.0085 81.1928 94.4751 81.8696 94.2187C82.1096 94.1281 82.3503 94.0216 82.5996 93.9667C83.2626 93.8196 84.7285 92.9996 85.1476 92.4496C85.3445 92.1905 85.5587 92.1054 85.811 92.2368C86.2628 92.4766 86.6287 92.5423 87.0526 92.1257C87.3275 91.8577 88.1011 92.1919 88.4974 92.6142C89.0977 93.2522 89.7701 93.8293 90.3095 94.5111C90.6948 94.9977 90.9385 95.6056 91.1916 96.181C91.6548 97.2315 92.1079 98.2858 92.5108 99.3616C92.7389 99.9714 92.9556 100.619 92.5686 101.265C92.5399 101.313 92.5207 101.376 92.5192 101.431C92.5187 102.506 91.6712 102.814 90.9 103.097C89.719 103.529 88.4602 103.606 87.2115 103.678C87.0991 103.686 86.9765 103.673 86.8674 103.641C85.9734 103.36 85.0692 103.22 84.126 103.36C83.981 103.381 83.7907 103.285 83.6612 103.19C83.3601 102.977 83.086 102.725 82.7915 102.477Z" fill="#6E09C3"/><path d="M102.235 121.131C101.466 121.43 100.819 121.123 100.194 120.724C99.5907 120.339 99.3275 119.723 99.1606 119.072C98.9746 118.347 98.8348 117.611 98.695 116.876C98.534 116.024 98.3912 115.171 98.2432 114.318C98.219 114.176 98.1732 114.029 98.186 113.888C98.3732 112.03 97.6169 110.309 97.4177 108.505C97.2856 107.309 97.6777 106.018 98.8321 105.676C99.747 105.405 100.653 105.075 101.586 104.9C102.61 104.706 103.208 105.205 103.649 106.176C104.873 108.879 105.648 111.725 106.398 114.58C106.585 115.297 106.869 116.026 106.582 116.782C106.475 117.065 106.298 117.319 106.159 117.593C106.083 117.738 105.984 117.886 105.965 118.043C105.877 118.745 105.535 119.296 105.005 119.735C104.519 120.138 104.036 120.569 103.488 120.869C103.134 121.065 102.658 121.051 102.235 121.131Z" fill="#6E09C3"/><path d="M108.8 94.9084C108.687 93.5338 108.868 92.3542 109.366 91.2301C109.458 91.0224 109.585 90.8134 109.749 90.6606C110.655 89.8128 111.58 88.9814 112.496 88.1456C112.603 88.0492 112.728 87.9639 112.809 87.8469C113.636 86.643 114.926 86.0639 116.178 85.4866C116.621 85.2833 117.262 85.3595 117.773 85.4768C119.472 85.8599 120.401 87.2906 120.275 89.0605C120.203 90.0647 120.245 91.0768 120.274 92.0852C120.295 92.795 119.959 93.3828 119.596 93.9185C119.398 94.2119 118.944 94.3377 118.59 94.5149C118.365 94.6274 118.078 94.6447 117.889 94.7951C116.321 96.0526 114.638 97.0946 112.689 97.6521C112.357 97.748 112.001 97.81 111.66 97.8018C110.835 97.7783 110.044 97.6641 109.603 96.8029C109.266 96.1399 108.739 95.5671 108.8 94.9084Z" fill="#6E09C3"/><path d="M132.752 124.932C132.808 124.429 132.861 123.95 132.913 123.466C133.871 123.067 134.839 122.955 135.827 122.958C136.001 122.959 136.18 122.999 136.348 122.971C137.476 122.789 138.211 123.407 138.872 124.182C138.984 124.314 139.105 124.442 139.234 124.556C139.83 125.089 139.813 125.081 139.562 125.785C139.42 126.182 139.345 126.606 139.258 127.021C139.173 127.427 139.044 127.794 138.678 128.049C137.839 128.637 137.21 129.426 136.565 130.207C135.829 131.096 135.026 131.929 134.249 132.78C134.155 132.883 134.031 133.016 133.909 133.032C132.826 133.175 131.787 133.649 130.65 133.383C129.323 133.073 128.013 132.776 126.836 132.002C126.252 131.62 126.045 131.058 125.705 130.55C125.581 130.37 125.551 130.126 125.469 129.915C125.428 129.809 125.334 129.71 125.333 129.605C125.33 129.466 125.363 129.226 125.437 129.204C126.068 129.008 125.55 128.095 126.297 127.928C126.896 127.793 127.465 127.499 128.028 127.233C128.408 127.052 128.749 126.787 129.114 126.574C130.1 125.999 131.126 125.508 132.217 125.159C132.405 125.103 132.584 125.007 132.752 124.932Z" fill="#6E09C3"/><path d="M106.27 102.319C104.997 102.3 103.724 102.296 102.452 102.253C101.949 102.237 101.622 102.417 101.236 102.753C100.559 103.346 99.7949 103.901 98.7666 103.643C98.5522 103.589 98.3087 103.649 98.0783 103.662C97.3265 103.701 96.5747 103.764 95.8225 103.776C94.7628 103.796 94.4445 102.952 94.1075 102.197C93.9761 101.902 94.0171 101.524 94.0018 101.184C93.9921 100.986 94.0628 100.775 94.0252 100.585C93.8627 99.8126 94.4757 99.2298 94.5114 98.5083C95.1499 98.033 95.7701 97.536 96.4313 97.0975C96.686 96.929 97.0381 96.9201 97.3367 96.8122C98.5124 96.3803 99.6176 96.8026 100.735 97.0764C102.307 97.4608 103.891 97.7152 105.522 97.6173C105.836 97.5971 106.161 97.6307 106.471 97.6897C107.241 97.8325 108.003 98.0184 108.773 98.1586C109.41 98.2746 109.927 98.4781 110.097 99.2022C110.148 99.4197 110.413 99.5891 110.587 99.7741C111.061 100.279 110.984 100.569 110.403 100.904C109.167 101.614 107.845 102.039 106.443 102.244C106.386 102.254 106.329 102.257 106.269 102.264C106.271 102.283 106.27 102.301 106.27 102.319Z" fill="#6E09C3"/><path d="M152.756 166.325C153.069 167.219 153.315 168.147 153.719 168.997C154.01 169.61 154.217 170.217 154.33 170.877C154.436 171.503 154.612 172.119 154.757 172.738C154.89 173.304 154.856 173.807 154.367 174.236C154.171 174.409 154.085 174.713 153.969 174.968C153.687 175.586 153.384 175.629 152.839 175.226C151.693 174.38 150.723 173.367 150.051 172.125C149.505 171.113 149.089 170.031 148.653 168.967C148.386 168.317 148.13 167.81 147.358 167.491C146.631 167.191 145.81 166.681 145.732 165.654C145.718 165.467 145.587 165.282 145.495 165.106C145.193 164.515 144.876 163.934 144.578 163.34C144.353 162.893 144.141 162.376 144.393 161.932C144.741 161.317 145.118 160.669 145.853 160.393C146.684 160.079 147.515 159.771 148.425 159.779C148.568 159.781 148.765 159.704 148.846 159.77C149.481 160.299 150.36 160.38 150.946 161.056C151.766 162.003 152.382 162.978 152.461 164.267C152.503 164.951 152.707 165.624 152.837 166.3C152.811 166.305 152.783 166.314 152.756 166.325Z" fill="#6E09C3"/><path d="M142.582 77.7714C142.901 78.6651 143.225 79.5581 143.536 80.4527C143.744 81.0464 143.957 81.6395 144.129 82.2451C144.311 82.8865 144.446 83.5384 144.595 84.1889C144.717 84.7241 144.664 85.2058 144.238 85.6252C144.046 85.8128 143.921 86.082 143.813 86.3362C143.511 87.0331 143.242 87.0771 142.654 86.64C141.511 85.7886 140.536 84.781 139.868 83.5358C139.325 82.5208 138.906 81.4389 138.474 80.369C138.209 79.7109 137.917 79.232 137.168 78.9055C136.446 78.5889 135.607 78.094 135.556 77.0539C135.548 76.8919 135.435 76.7341 135.357 76.5802C135.05 75.9926 134.73 75.4092 134.43 74.8182C134.194 74.346 133.955 73.8058 134.235 73.3295C134.623 72.6674 135.026 71.9563 135.88 71.7479C136.021 71.7133 136.188 71.7204 136.297 71.6448C136.746 71.3304 137.231 71.3089 137.763 71.261C138.4 71.2037 138.88 71.2116 139.434 71.6315C139.868 71.9627 140.43 72.0874 140.843 72.5577C141.607 73.4343 142.197 74.3258 142.263 75.5376C142.303 76.2767 142.531 77.0073 142.676 77.7422C142.643 77.7539 142.613 77.7626 142.582 77.7714Z" fill="#6E09C3"/><path d="M151.737 148.485C151.783 148.055 151.807 147.416 151.93 146.795C152.058 146.16 152.575 145.796 153.079 145.438C153.352 145.246 153.56 144.965 153.827 144.766C154.286 144.427 154.763 144.104 155.25 143.807C156.358 143.13 157.502 142.51 158.585 141.794C159.515 141.178 160.266 141.386 160.89 142.2C161.708 143.273 162.705 144.215 163.541 145.278C164.143 146.044 164.617 146.912 165.129 147.747C165.356 148.118 165.279 148.439 164.929 148.737C164.429 149.159 163.953 149.529 163.226 149.329C163.044 149.279 162.785 149.416 162.592 149.52C161.919 149.884 161.221 150.111 160.452 150.184C159.704 150.254 158.968 150.433 158.221 150.534C156.599 150.757 154.976 150.692 153.376 150.413C152.489 150.262 151.825 149.458 151.737 148.485Z" fill="#6E09C3"/><path d="M88.7694 110.538C88.2383 110.365 87.8302 110.231 87.4085 110.092C87.2428 109.039 87.4592 108.055 87.5972 107.054C87.7423 105.999 88.4133 105.486 89.2003 104.904C89.9851 104.325 90.5535 104.342 91.2185 104.97C91.331 105.077 91.5378 105.088 91.7039 105.135C92.1501 105.257 92.4366 105.526 92.6563 105.948C92.947 106.505 93.3006 107.038 93.6703 107.55C94.3814 108.532 95.1362 109.484 95.8397 110.47C96.0097 110.711 96.116 111.04 96.1395 111.337C96.3267 113.701 95.3531 115.619 93.7259 117.238C93.1393 117.82 92.2778 117.822 91.5016 117.948C91.3696 117.968 91.1936 117.812 91.0579 117.709C91.0003 117.666 91.006 117.487 90.9658 117.481C90.0254 117.323 90.114 116.488 89.959 115.873C89.8031 115.249 89.6773 114.636 89.459 114.02C89.1289 113.096 89.0293 112.09 88.8384 111.116C88.8001 110.921 88.7902 110.72 88.7694 110.538Z" fill="#6E09C3"/><path d="M177.578 100.332C177.086 100.176 176.675 100.047 176.232 99.9059C176.092 98.8419 176.266 97.8365 176.427 96.8062C176.586 95.7789 177.248 95.3009 177.986 94.73C178.746 94.1408 179.328 94.0924 180.002 94.7534C180.115 94.8614 180.318 94.8879 180.483 94.9294C180.971 95.0468 181.268 95.3334 181.487 95.7944C181.733 96.3101 182.077 96.783 182.412 97.2464C183.16 98.2722 183.939 99.2759 184.682 100.307C184.839 100.526 184.949 100.821 184.967 101.089C185.129 103.441 184.205 105.379 182.573 107.004C181.958 107.616 181.081 107.614 180.277 107.753C179.922 107.279 179.13 107.262 179.001 106.549C178.912 106.05 178.835 105.546 178.731 105.048C178.672 104.771 178.618 104.478 178.487 104.233C177.958 103.229 177.852 102.119 177.656 101.033C177.619 100.808 177.606 100.579 177.578 100.332Z" fill="#6E09C3"/><path d="M108.498 87.207C107.992 86.5897 108.022 86.0029 108.238 85.3631C108.354 85.0187 108.319 84.6233 108.38 84.2563C108.487 83.6028 108.615 82.9522 108.739 82.2836C108.572 82.1136 108.39 81.9295 108.211 81.7503C108.735 79.8875 109.471 79.0908 111.126 79.1373C111.725 79.7623 112.203 80.4169 112.246 81.3685C112.28 82.0767 112.51 82.794 112.746 83.4738C113.041 84.3203 112.771 85.045 112.278 85.6562C111.848 86.1864 111.269 86.6076 110.713 87.0209C110.031 87.525 109.262 87.5082 108.498 87.207Z" fill="#6E09C3"/><path d="M118.907 170.85C118.731 170.675 118.547 170.494 118.372 170.32C118.97 168.396 119.598 167.709 121.294 167.701C121.88 168.33 122.373 168.975 122.414 169.927C122.445 170.635 122.679 171.347 122.913 172.027C123.214 172.901 122.93 173.641 122.418 174.28C121.879 174.955 121.206 175.494 120.377 175.85C119.804 176.094 119.303 175.976 118.784 175.82C118.487 175.73 118.208 175.14 118.259 174.758C118.345 174.107 118.45 173.459 118.557 172.811C118.657 172.184 118.775 171.564 118.907 170.85Z" fill="#6E09C3"/><path d="M99.0947 152.81C99.6301 153.411 100.101 153.911 100.539 154.439C100.961 154.953 100.945 155.359 100.596 155.946C100.302 156.437 100.014 156.935 99.7732 157.457C99.4164 158.228 98.8516 158.588 97.9165 158.545C97.4476 157.606 96.957 156.661 96.5143 155.697C96.4194 155.49 96.3942 155.133 96.5119 154.964C97.173 153.998 98.0561 153.289 99.0947 152.81Z" fill="#6E09C3"/></g><path d="M173.02 121.63L178.547 115.801C178.789 117.329 178.313 123.875 178.045 126.957L173.02 121.63Z" fill="#6308C0"/><circle cx="130.61" cy="119.863" r="47.9264" stroke="#5FFFCA" stroke-width="1.11957" stroke-linecap="round"/><path d="M102.525 81.2852L106.782 90.0245L112.904 89.4679V95.5901L120.696 96.1467L119.583 116.183L109.565 118.966C109.936 123.418 111.123 133.993 112.904 140.672C108.452 141.117 103.999 140.115 102.33 139.559L91.7547 120.079L83.4062 116.74" stroke="#5FFFCA" stroke-width="1.11957" stroke-linecap="round" stroke-linejoin="round"/><path d="M141.348 101.569L142.047 121.516L153.291 123.339L146.453 125.011L146.15 128.658L159.695 136.129L161.841 146.479C165.999 143.41 174.024 137.124 177.769 126.558C175.345 124.74 173.159 121.991 172.696 121.487L178.376 115.68" stroke="#5FFFCA" stroke-width="1.11957" stroke-linecap="round" stroke-linejoin="round"/><path d="M112.6 141.217L107.327 143.436L107.823 152.104C107.823 152.104 118.52 160.366 122.817 163.353C122.817 163.353 122.623 157.083 125.882 155.18L124.532 145.996L112.6 141.217Z" stroke="#5FFFCA" stroke-width="1.11957" stroke-linecap="round"/><path d="M141.438 101.567C147.222 99.7025 155.593 92.528 158.283 88.0439C160.994 89.3283 165.396 91.1187 165.762 90.8259L167.079 88.8496" stroke="#5FFFCA" stroke-width="1.11957" stroke-linecap="round" stroke-linejoin="round"/><path d="M89.2888 77.6372L40.3074 41.0827L34.2404 41.1865L86.485 78.222L89.2888 77.6372Z" fill="#D74590"/><path d="M114.74 153.346C107.052 144.291 97.6058 138.085 84.2359 140.568C70.8661 143.05 62.2878 155.466 69.0162 164.484C75.7447 173.503 89.128 165.572 98.6403 167.474C108.153 169.376 114.465 177.038 118.752 175.633C123.04 174.228 122.429 162.4 114.74 153.346Z" fill="#FFDA00"/><path d="M91.683 76.6099L84.4413 49.9304L121.793 40.7832L128.653 68.6061L113.408 72.0363L112.264 88.044L103.498 74.3231L91.683 76.6099Z" fill="#201678"/><path d="M100.143 65.3379C95.1437 67.9636 92.7787 69.7782 90.5234 72.189L91.5692 76.3189L103.468 74.6857L112.1 87.7506L113.53 72.0239L128.631 68.5032L127.12 62.3526C127.12 62.3526 120.178 60.3742 113.488 61.3454C113.2 63.7912 110.61 65.194 107.013 66.1652C103.417 67.1363 100.143 65.3379 100.143 65.3379Z" fill="#FFDA00"/><path d="M107.83 65.9955C104.544 67.1196 101.306 66.1691 100.066 65.5638C100.528 65.2179 102.97 63.8854 104.285 63.4012C101.085 63.5741 100.406 56.2717 105.298 55.573C110.189 54.8742 110.79 60.3507 109.732 62.1041C111.035 61.8192 113.624 61.5852 113.624 61.5852C112.932 62.8823 111.116 64.8713 107.83 65.9955Z" stroke="#5FFFCA" stroke-width="1.11957" stroke-linecap="round" stroke-linejoin="round"/><path d="M91.683 76.6099C91.683 76.6099 86.4741 58.4424 84.4413 49.9304L121.793 40.7832L128.653 68.6061L113.408 72.0363L112.264 88.044L103.498 74.3231L91.683 76.6099Z" stroke="#5FFFCA" stroke-width="1.11957" stroke-linecap="round" stroke-linejoin="round"/><path d="M150.722 89.7087L155.959 62.5646L193.525 70.7867L187.442 98.7899L172.243 95.1615L164.172 109.033L162.338 92.8544L150.722 89.7087Z" fill="#201678"/><path d="M169.175 80.1537C160.562 78.2193 154.946 82.7897 151.86 83.9622L150.756 89.3966L162.159 93.1659L164.161 108.696L172.227 95.2569L187.45 98.2849L188.862 92.2219C185.985 90.5099 177.788 82.0881 169.175 80.1537Z" fill="#400090"/><path d="M150.722 89.7087C150.722 89.7087 154.039 71.1026 155.959 62.5646L193.525 70.7867L187.442 98.7899L172.243 95.1615L164.172 109.033L162.338 92.8544L150.722 89.7087Z" stroke="#5FFFCA" stroke-width="1.11957" stroke-linecap="round" stroke-linejoin="round"/><path d="M63.4902 120.296L60.0005 100.595L87.5167 96.4241L90.6575 116.924L79.4461 118.408L77.5839 129.872L72.155 119.413L63.4902 120.296Z" fill="#201678"/><path d="M76.0169 110.193C69.6953 111.116 64.551 114.529 62.7691 116.121L63.4301 120.079L72.1125 119.674L77.4873 129.651L79.8614 118.337L90.5297 116.584L89.9141 112.121C87.9157 111.094 82.3385 109.27 76.0169 110.193Z" fill="#6308C0"/><path d="M169.175 80.1558C152.665 74.0022 148.534 57.5567 149.989 50.904L143.525 48.8369C141.861 52.5252 140.822 60.5596 141.861 67.836C142.901 75.1123 147.91 84.6525 151.444 88.9491C155.048 88.3947 168.843 84.6464 169.175 80.1558Z" fill="#400090"/><path d="M170.254 83.8049C166.964 82.6926 164.977 79.9649 164.364 78.7294C164.94 78.7365 167.689 79.1695 169.026 79.587C166.502 76.8495 170.298 71.5713 174.601 73.9996C178.905 76.4279 176.042 81.1355 174.135 81.8803C175.341 82.4488 177.536 83.8415 177.536 83.8415C176.196 84.4479 173.544 84.9173 170.254 83.8049Z" stroke="#5FFFCA" stroke-width="1.11957" stroke-linecap="round" stroke-linejoin="round"/><path d="M169.74 74.3553C169.335 74.5025 167.599 73.5042 170.588 71.8289C173.576 70.1536 178.281 72.1464 178.613 75.4675C178.86 77.9354 177.823 77.9887 177.274 77.8533C177.865 78.0969 179.011 78.7279 178.415 79.7904C177.628 81.193 176.379 80.703 175.909 80.5369C176.545 80.0793 177.208 79.1723 177.063 77.7859C176.994 77.7586 176.953 77.737 176.953 77.737C176.953 77.737 176.993 77.7487 177.061 77.7724C177.003 77.2325 176.822 76.6202 176.469 75.9337C174.891 72.8599 171.485 72.943 169.74 74.3553Z" fill="#5FFFCA"/><path d="M149.937 50.392C149.985 50.0334 150.803 44.7887 152.17 41.3415C153.599 37.7364 151.361 38.4587 150.013 40.475C148.665 42.4913 148.519 43.472 148.209 44.5401" stroke="#5FFFCA" stroke-width="1.11957" stroke-linecap="round" stroke-linejoin="round"/><path d="M146.227 43.5209C147.241 40.231 149.607 37.3456 150.472 37.4965C151.338 37.6475 151.276 38.3466 151.26 38.9918" stroke="#5FFFCA" stroke-width="1.11957" stroke-linecap="round" stroke-linejoin="round"/><path d="M144.057 44.0106C145.098 40.7292 147.501 38.0067 148.093 38.0574C148.684 38.108 148.601 38.8104 148.601 38.8104" stroke="#5FFFCA" stroke-width="1.11957" stroke-linecap="round" stroke-linejoin="round"/><path d="M146.484 49.4464C146.032 49.356 143.572 48.7526 143.485 48.4053C143.376 47.9713 143.539 45.5299 144.082 44.0107" stroke="#5FFFCA" stroke-width="1.11957" stroke-linecap="round" stroke-linejoin="round"/><path d="M153.994 43.5684C152.995 42.712 150.605 45.0262 150.29 46.7558L150.159 50.831C150.159 50.831 152.208 49.9709 152.567 47.7082C152.925 45.4455 154.993 44.4249 153.994 43.5684Z" fill="#5FFFCA"/><path d="M150.208 46.9118C148.007 45.8898 144.85 47.874 144.253 48.5793C143.656 49.2846 148.21 50.3333 150.018 50.805C150.097 50.0188 150.082 48.4213 150.208 46.9118Z" fill="#5FFFCA"/><path d="M100.706 54.0422C102.598 53.2084 103.338 54.2889 104.164 55.6486C100.605 58.2463 102 61.5173 102.096 61.9503C102.173 62.2966 102.673 63.2973 103.924 63.5378C101.038 64.7885 92.3201 70.9175 90.7546 71.9719C87.6292 65.7212 96.9539 61.2635 98.0746 59.4705C99.1952 57.6774 98.8145 54.876 100.706 54.0422Z" fill="#5FFFCA"/><path d="M104.901 52.4772C103.763 52.8391 103.483 54.8047 103.852 55.9271C105.558 55.0777 107.531 55.5151 108.732 56.2624C110.408 57.3055 110.935 60.3296 110.242 61.9478C113.509 61.0231 120.388 61.3057 123.419 61.5625C123.496 60.8947 125.062 59.2351 123.265 55.9016C121.468 52.568 112.679 53.6372 110.759 53.6372C108.84 53.6372 107.123 51.7702 104.901 52.4772Z" fill="#5FFFCA"/><path d="M132.393 47.7965C130.03 55.8669 119.45 62.649 115.379 61.5064L118.126 68.8002C119.698 69.0144 123.688 69.5973 127.786 68.1693C133.324 66.2393 137.687 53.3741 137.409 49.0774C137.409 47.567 133.673 46.7292 132.393 47.7965Z" fill="#FFDA00"/><path d="M75.3849 112.81C72.9434 113.407 70.6711 112.512 69.8169 111.996C70.1718 111.776 72.0187 110.974 72.9976 110.71C70.6801 110.627 70.6644 105.32 74.2355 105.133C77.8065 104.947 77.8849 108.933 77.0086 110.129C77.966 110.008 79.8471 110.007 79.8471 110.007C79.2643 110.897 77.8264 112.213 75.3849 112.81Z" stroke="#5FFFCA" stroke-width="1.11957" stroke-linecap="round" stroke-linejoin="round"/><path d="M66.0196 113.86L69.1262 115.913L71.4656 115.003L70.4909 117.018L75.1047 120.202" stroke="#5FFFCA" stroke-width="1.11957" stroke-linecap="round" stroke-linejoin="round"/><path d="M83.8125 110.459L81.7655 113.606L79.2557 113.569L80.8717 115.117L77.6577 119.71" stroke="#5FFFCA" stroke-width="1.11957" stroke-linecap="round" stroke-linejoin="round"/><path d="M63.4902 120.296C63.4902 120.296 60.9137 106.863 60.0005 100.595L87.5167 96.4241L90.6575 116.924L79.4461 118.408L77.5839 129.872L72.155 119.413L63.4902 120.296Z" stroke="#5FFFCA" stroke-width="1.11957" stroke-linecap="round" stroke-linejoin="round"/><path d="M55.8086 44.7412L80.2 68.1405" stroke="#6308C0" stroke-width="0.767194" stroke-linecap="round"/><path d="M56.7852 61.5811L76.0665 73.5404" stroke="#6308C0" stroke-width="0.767194" stroke-linecap="round"/><path d="M159.256 58.9916L183.073 27.8168L186.837 26.8147L161.09 58.8599L159.256 58.9916Z" fill="#5FFFCA"/><path d="M177.922 10.3994L159.852 47.1367" stroke="#6308C0" stroke-width="0.767194" stroke-linecap="round"/><path d="M81.732 134.016L44.3037 145.774L42.0781 148.97L80.9828 135.695L81.732 134.016Z" fill="#6308C0"/><path d="M52.6602 136.137L76.9355 132.133" stroke="#FFDA00" stroke-width="0.767194" stroke-linecap="round"/><path d="M94.875 185.638C95.3319 190.667 178.072 192.495 179.444 184.724C178.48 182.143 95.3502 181.454 94.875 185.638Z" fill="#0B006C"/><path d="M58.2115 185.967C58.9125 188.761 85.2366 188.761 85.7177 185.786C86.1639 184.246 58.0626 184.065 58.2115 185.967Z" fill="#0B006C"/><path d="M186.563 184.403C187.264 187.964 213.588 187.964 214.069 184.172C214.515 182.208 186.414 181.978 186.563 184.403Z" fill="#0B006C"/><path d="M84.7803 91.2052C82.9501 94.8813 77.9583 95.8988 73.5999 93.4908C69.2414 91.0828 68.7308 86.7935 70.6176 83.7317C72.5948 80.5233 76.098 79.7908 79.9645 81.0287C83.831 82.2667 86.6106 87.5292 84.7803 91.2052Z" fill="#6308C0"/><path d="M165.382 166.337C165.247 168.194 163.328 169.48 161.084 169.221C158.841 168.961 157.889 167.249 158.153 165.64C158.43 163.953 159.774 163.043 161.609 162.896C163.444 162.75 165.516 164.479 165.382 166.337Z" fill="#400090"/><path d="M198.896 140.074C198.896 140.074 199.941 137.756 199.864 135.234" stroke="#201678" stroke-width="0.767194" stroke-linecap="round"/><path d="M189.123 155.799C189.123 155.799 191.311 154.505 192.7 152.399" stroke="#201678" stroke-width="0.767194" stroke-linecap="round"/><path d="M132.57 47.5545C132.804 45.2973 132.96 42.5731 132.726 39.6154C132.492 36.6577 133.816 37.2804 134.235 38.2788" stroke="#5FFFCA" stroke-width="1.11957" stroke-linecap="round" stroke-linejoin="round"/><path d="M141.93 29.1475C142.045 30.9886 142.087 34.6453 142.087 34.6453" stroke="#5FFFCA" stroke-width="1.11957" stroke-linecap="round" stroke-linejoin="round"/><path d="M147.227 34.081L144.694 36.2377" stroke="#5FFFCA" stroke-width="1.11957" stroke-linecap="round" stroke-linejoin="round"/><path d="M134.304 42.8765C134.378 42.5824 134.413 37.9757 134.156 36.4318C133.899 34.8879 135.873 35.2147 136.106 37.2551" stroke="#5FFFCA" stroke-width="1.11957" stroke-linecap="round" stroke-linejoin="round"/><path d="M136.354 42.2981C136.425 39.618 136.123 36.827 136.076 36.0341C136.018 35.0431 137.516 34.5578 137.866 36.4233C138.216 38.2888 138.614 42.3913 137.627 48.5273" stroke="#5FFFCA" stroke-width="1.11957" stroke-linecap="round" stroke-linejoin="round"/><path d="M137.488 48.9594C140.705 49.0764 141.45 40.4833 140.272 40.3927C139.094 40.3021 138.968 43.24 137.966 44.515C137.814 45.365 137.488 46.1909 137.488 48.9594Z" fill="#5FFFCA"/><path d="M135.777 31.623C136.851 32.2367 138.431 33.6259 139.32 34.6446" stroke="#5FFFCA" stroke-width="1.11957" stroke-linecap="round" stroke-linejoin="round"/><path d="M184.029 110.452C185.995 110.286 186.867 108.881 187.438 107.835C188.01 106.788 188.638 106.402 189.621 106.319C190.604 106.236 190.987 106.87 192.026 107.448C192.765 108.384 193.86 109.623 195.826 109.457C197.792 109.291 198.664 107.886 199.236 106.84C199.807 105.793 200.435 105.407 201.418 105.324C202.401 105.241 202.785 105.875 203.823 106.453C204.563 107.389 205.657 108.628 207.623 108.462C209.589 108.296 210.461 106.891 211.033 105.845C211.605 104.798 212.232 104.412 213.215 104.329C213.871 104.274 214.171 103.916 214.115 103.255C214.059 102.594 213.704 102.291 213.048 102.347C211.082 102.512 210.21 103.917 209.639 104.964C209.067 106.01 208.439 106.396 207.456 106.479C206.473 106.562 206.09 105.929 205.051 105.351C204.312 104.415 203.217 103.176 201.251 103.342C199.285 103.507 198.413 104.912 197.841 105.959C197.269 107.005 196.642 107.391 195.659 107.474C194.676 107.557 194.292 106.924 193.253 106.346C192.514 105.41 191.42 104.171 189.454 104.337C187.487 104.502 186.616 105.907 186.044 106.954C185.472 108 184.845 108.386 183.861 108.469C183.206 108.524 182.906 108.882 182.962 109.543C183.018 110.204 183.373 110.507 184.029 110.452Z" fill="#D74590"/><path d="M192.721 62.1641C191.446 60.7431 191.612 58.8263 193.023 57.42C194.435 56.0137 196.14 56.2957 197.106 57.3621C198.118 58.4795 198.009 59.9073 197.102 61.255C196.196 62.6027 193.997 63.5851 192.721 62.1641Z" fill="#FFDA00"/><path d="M121.828 7.41311L124.571 35.9853" stroke="#FFDA00" stroke-width="1.11957" stroke-linecap="round" stroke-linejoin="round"/><path d="M119.703 26.2178L122.851 38.4728" stroke="#FFDA00" stroke-width="0.668478" stroke-linecap="round" stroke-linejoin="round"/><path d="M177.434 49.8584L167.081 57.1335" stroke="#FFDA00" stroke-width="0.668478" stroke-linecap="round" stroke-linejoin="round"/><circle cx="46.2619" cy="90.3" r="3.04318" stroke="#D74590" stroke-width="0.767194" stroke-linecap="round"/></svg>