<?xml version="1.0" encoding="UTF-8"?>
<svg xmlns="http://www.w3.org/2000/svg" xmlns:xlink="http://www.w3.org/1999/xlink" width="32pt" height="47pt" viewBox="0 0 32 47" version="1.1">
<g id="surface1">
<path style=" stroke:none;fill-rule:nonzero;fill:rgb(3.921569%,81.176471%,51.372549%);fill-opacity:1;" d="M 8 47 C 12.417969 47 16 43.492188 16 39.167969 L 16 31.332031 L 8 31.332031 C 3.585938 31.332031 0.00390625 34.84375 0.00390625 39.167969 C 0.00390625 43.492188 3.585938 47 8 47 Z M 8 47 "/>
<path style=" stroke:none;fill-rule:nonzero;fill:rgb(63.529412%,34.901961%,100%);fill-opacity:1;" d="M 0.00390625 23.5 C 0.00390625 19.175781 3.585938 15.667969 8 15.667969 L 16 15.667969 L 16 31.332031 L 8 31.332031 C 3.585938 31.332031 0.00390625 27.824219 0.00390625 23.5 Z M 0.00390625 23.5 "/>
<path style=" stroke:none;fill-rule:nonzero;fill:rgb(94.901961%,30.588235%,11.764706%);fill-opacity:1;" d="M 0.00390625 7.832031 C 0.00390625 3.507812 3.585938 0 8 0 L 16 0 L 16 15.667969 L 8 15.667969 C 3.585938 15.667969 0.00390625 12.15625 0.00390625 7.832031 Z M 0.00390625 7.832031 "/>
<path style=" stroke:none;fill-rule:nonzero;fill:rgb(100%,44.705882%,38.431373%);fill-opacity:1;" d="M 16 0 L 24 0 C 28.414062 0 31.996094 3.507812 31.996094 7.832031 C 31.996094 12.15625 28.414062 15.667969 24 15.667969 L 16 15.667969 Z M 16 0 "/>
<path style=" stroke:none;fill-rule:nonzero;fill:rgb(10.196078%,73.72549%,99.607843%);fill-opacity:1;" d="M 31.996094 23.5 C 31.996094 27.824219 28.414062 31.332031 24 31.332031 C 19.582031 31.332031 16 27.824219 16 23.5 C 16 19.175781 19.582031 15.667969 24 15.667969 C 28.414062 15.667969 31.996094 19.175781 31.996094 23.5 Z M 31.996094 23.5 "/>
</g>
</svg>
