<?xml version="1.0" standalone="no"?>
<!DOCTYPE svg PUBLIC "-//W3C//DTD SVG 1.0//EN" "http://www.w3.org/TR/2001/REC-SVG-20010904/DTD/svg10.dtd">
<svg xmlns="http://www.w3.org/2000/svg" xmlns:xlink="http://www.w3.org/1999/xlink" id="body_1" width="48" height="48">

<g transform="matrix(0.75 0 0 0.75 0 0)">
	<g transform="matrix(1.333333 0 0 1.333333 0 0)">
	</g>
    <path transform="matrix(1.333333 0 0 1.333333 0 0)"  d="M44.30859 36.99609L24.85547 48L24.85547 39.42969L36.97656 32.76172L44.30859 36.99609zM45.64063 35.78906L45.64063 12.78125L38.52734 16.89453L38.52734 31.6875zM3.691406 36.99609L23.14453 48L23.14453 39.42969L11.01563 32.76172zM2.359375 35.78906L2.359375 12.78125L9.476562 16.89453L9.476562 31.6875zM3.195312 11.28516L23.14453 0L23.14453 8.28125L10.26172 15.375zM44.80469 11.28516L24.85547 0L24.85547 8.28125L37.73828 15.36719z" stroke="none" fill="none" />
	<g transform="matrix(1.333333 0 0 1.333333 0 0)">
	</g>
    <path transform="matrix(1.333333 0 0 1.333333 0 0)"  d="M23.14453 37.85547L11.18359 31.27344L11.18359 18.25L23.14453 25.15625L23.14453 37.85547zM24.85547 37.85547L36.81641 31.28125L36.81641 18.24609L24.85547 25.15625zM11.99219 16.74219L24 10.14453L36.00781 16.74609L24 23.67578z" stroke="none" fill="none" />
</g>
</svg>