<?xml version="1.0" standalone="no"?>
<!DOCTYPE svg PUBLIC "-//W3C//DTD SVG 20010904//EN"
 "http://www.w3.org/TR/2001/REC-SVG-20010904/DTD/svg10.dtd">
<svg version="1.0" xmlns="http://www.w3.org/2000/svg"
 width="376.000000pt" height="376.000000pt" viewBox="0 0 376.000000 376.000000"
 preserveAspectRatio="xMidYMid meet">
<metadata>
Created by potrace 1.16, written by Peter Selinger 2001-2019
</metadata>
<g transform="translate(0.000000,376.000000) scale(0.100000,-0.100000)"
fill="#000000" stroke="none">
<path d="M1476 2562 c-236 -130 -429 -241 -428 -247 2 -10 849 -504 865 -505
18 0 877 504 870 511 -11 11 -863 479 -871 479 -4 -1 -200 -108 -436 -238z"/>
<path d="M980 1733 l1 -478 433 -237 c239 -131 436 -238 440 -238 3 0 5 210 4
466 l-3 465 -430 249 c-236 137 -433 250 -437 250 -5 0 -8 -215 -8 -477z"/>
<path d="M2405 1962 l-430 -249 -3 -466 c-1 -257 1 -467 5 -466 5 0 202 107
438 237 l430 237 3 478 c1 262 -1 477 -5 477 -5 0 -201 -112 -438 -248z"/>
</g>
</svg>
