<?xml version="1.0" standalone="no"?>
<!DOCTYPE svg PUBLIC "-//W3C//DTD SVG 20010904//EN"
 "http://www.w3.org/TR/2001/REC-SVG-20010904/DTD/svg10.dtd">
<svg version="1.0" xmlns="http://www.w3.org/2000/svg"
 width="328.000000pt" height="330.000000pt" viewBox="0 0 328.000000 330.000000"
 preserveAspectRatio="xMidYMid meet">
<metadata>
Created by potrace 1.16, written by Peter Selinger 2001-2019
</metadata>
<g transform="translate(0.000000,330.000000) scale(0.100000,-0.100000)"
fill="#000000" stroke="none">
<path d="M1365 3281 c-349 -63 -642 -216 -890 -466 -219 -221 -367 -492 -441
-810 -27 -114 -29 -132 -29 -355 0 -223 2 -241 29 -355 145 -620 597 -1091
1194 -1246 62 -16 118 -29 123 -29 5 0 9 14 9 31 0 17 6 52 14 78 52 167 76
232 111 301 42 82 76 115 228 217 97 65 152 103 238 167 l80 59 -7 41 c-3 23
-13 52 -20 66 -8 14 -20 43 -28 65 -16 50 -60 78 -130 82 -38 2 -55 -2 -70
-16 -31 -29 -97 -45 -151 -37 -49 8 -118 58 -136 101 -5 11 -14 28 -21 37 -15
21 3 99 33 140 19 27 19 30 3 78 -10 32 -14 66 -10 97 3 26 6 55 6 63 2 110 4
104 -42 125 -25 12 -50 33 -61 53 -17 29 -18 36 -6 65 7 18 42 62 76 99 l63
67 0 135 0 136 28 6 c15 4 37 17 49 29 23 22 123 241 123 269 0 11 -9 16 -30
16 -38 0 -83 41 -73 67 3 10 16 28 29 41 28 26 28 26 13 72 -6 19 -17 75 -25
124 -13 82 -12 91 3 108 10 11 16 33 15 56 -2 42 20 65 84 91 34 14 164 10
244 -6 56 -12 107 -38 92 -47 -6 -4 -24 0 -39 8 -62 32 -223 46 -292 26 -48
-13 -70 -41 -73 -92 -2 -24 -9 -48 -16 -54 -11 -8 -12 -18 -3 -50 6 -21 11
-56 11 -77 0 -21 9 -56 20 -79 21 -43 18 -59 -19 -92 -12 -11 -21 -24 -21 -31
0 -19 38 -48 54 -42 15 6 46 -22 46 -42 0 -25 -102 -257 -124 -283 -13 -14
-34 -28 -47 -30 -33 -4 -41 -45 -34 -162 l6 -98 -59 -67 c-67 -76 -82 -100
-82 -135 0 -27 34 -59 83 -77 l32 -11 -2 -72 c-1 -39 -5 -84 -9 -100 -4 -17 1
-58 12 -102 17 -68 17 -74 1 -92 -9 -10 -23 -37 -31 -60 -14 -40 -14 -45 5
-82 28 -53 84 -96 137 -105 36 -6 52 -2 100 22 42 21 72 28 113 28 81 0 120
-29 158 -122 17 -39 35 -90 40 -113 l9 -41 -91 -68 c-51 -37 -139 -99 -197
-138 -58 -39 -136 -97 -174 -129 -66 -56 -72 -65 -118 -172 -58 -137 -90 -241
-92 -302 l-1 -45 45 -7 c85 -13 362 -8 460 7 466 75 860 330 1121 724 l69 104
0 76 c0 42 -3 92 -6 112 -6 35 -8 36 -93 62 -47 15 -95 27 -106 27 -12 0 -27
6 -35 13 -7 6 -1 -4 13 -24 31 -41 34 -83 11 -119 -25 -37 -87 -100 -98 -100
-5 0 -20 -10 -32 -21 l-23 -22 -11 25 c-12 26 -125 88 -160 88 -11 0 -20 5
-20 10 0 6 -9 10 -19 10 -24 0 -31 19 -31 81 0 39 5 56 25 77 21 23 24 33 19
68 -4 26 0 59 11 92 10 28 15 58 12 66 -3 7 -1 18 5 24 13 13 21 81 19 159 -2
74 20 136 43 127 9 -3 16 -15 16 -25 0 -11 4 -27 9 -37 13 -26 31 -86 31 -105
0 -9 5 -16 12 -15 7 2 14 -10 17 -27 5 -24 12 -31 34 -33 15 -2 27 -8 27 -13
0 -6 9 -7 20 -4 19 6 20 2 21 -82 l2 -88 8 84 c7 60 15 92 32 115 38 53 54 88
71 161 27 110 82 255 105 278 6 6 11 15 11 20 0 5 13 25 30 43 l29 34 -1 241
-1 240 -67 102 c-113 171 -249 313 -422 440 -44 33 -88 36 -95 7 -3 -11 -9
-17 -14 -14 -16 10 -9 32 11 37 33 9 23 21 -52 64 -157 89 -356 157 -548 188
-132 21 -395 19 -525 -4z"/>
<path d="M3090 2191 c0 -226 -1 -236 -21 -257 -35 -37 -92 -150 -104 -205 -4
-19 -13 -43 -20 -54 -7 -11 -16 -42 -20 -69 -6 -46 -46 -133 -89 -199 -16 -23
-18 -41 -14 -115 7 -103 28 -152 68 -152 14 0 64 -13 110 -28 l85 -29 5 -104
5 -104 36 80 c54 117 84 206 115 340 27 114 29 132 29 355 0 223 -2 241 -29
355 -30 129 -81 277 -127 365 l-28 55 -1 -234z"/>
</g>
</svg>
